<?xml version="1.0" encoding="UTF-8"?>
<svg version="1.1" xmlns="http://www.w3.org/2000/svg" width="275" height="183">
<path d="M0 0 C90.75 0 181.5 0 275 0 C275 60.39 275 120.78 275 183 C184.25 183 93.5 183 0 183 C0 122.61 0 62.22 0 0 Z " fill="#FEFEFE" transform="translate(0,0)"/>
<path d="M0 0 C5.80672216 4.66856246 9.41384638 9.9020307 10.58984375 17.35546875 C10.67991322 19.04529974 10.72485667 20.73795989 10.73168945 22.43017578 C10.74224113 23.90793991 10.74224113 23.90793991 10.75300598 25.41555786 C10.75717026 26.47080658 10.76133453 27.5260553 10.765625 28.61328125 C10.78883207 30.87110298 10.81294976 33.1289155 10.83789062 35.38671875 C10.87290311 38.92812191 10.90230084 42.46918751 10.91577148 46.01074219 C10.93135561 49.44116704 10.97163812 52.87061766 11.015625 56.30078125 C11.01371658 57.34388458 11.01180817 58.38698792 11.00984192 59.46170044 C11.16889018 69.14572434 13.43097315 76.82796024 19.58984375 84.35546875 C19.24220139 87.74540775 18.03920579 89.20711037 15.46484375 91.3359375 C14.8409375 91.85994141 14.21703125 92.38394531 13.57421875 92.92382812 C12.919375 93.45814453 12.26453125 93.99246094 11.58984375 94.54296875 C10.29817204 95.61978562 9.00650512 96.69660823 7.71484375 97.7734375 C7.13992187 98.24547607 6.565 98.71751465 5.97265625 99.20385742 C4.62080405 100.29422607 4.62080405 100.29422607 3.58984375 101.35546875 C0.96484375 101.85546875 0.96484375 101.85546875 -2.41015625 101.35546875 C-6.34137843 98.33017304 -9.62616499 94.44957354 -12.41015625 90.35546875 C-16.53104058 92.25523423 -19.95938739 94.89626555 -23.58203125 97.6015625 C-30.01368409 101.59025328 -35.83002446 102.87069318 -43.34765625 102.73046875 C-44.13962402 102.71959229 -44.9315918 102.70871582 -45.74755859 102.69750977 C-54.87548934 102.44829262 -60.93509688 100.61645597 -67.68359375 94.2578125 C-75.32489616 85.83854944 -75.03757082 76.18813226 -74.58496094 65.44873047 C-73.93234787 57.63378019 -69.03278978 51.49958027 -63.41015625 46.35546875 C-50.37952787 35.9261488 -32.35790987 35.49991081 -16.41015625 34.35546875 C-16.80621963 23.92737232 -16.80621963 23.92737232 -22.41015625 15.48046875 C-28.12157584 13.3386864 -34.08027578 13.8649676 -39.97265625 15.10546875 C-42.88940086 16.60123522 -43.33854087 17.30548651 -44.41015625 20.35546875 C-44.9461483 21.60791248 -45.48818921 22.85777895 -46.03515625 24.10546875 C-46.48890625 25.17796875 -46.94265625 26.25046875 -47.41015625 27.35546875 C-55.09359728 27.47615107 -62.79360951 27.51295522 -70.41015625 26.35546875 C-71.41015625 25.35546875 -71.41015625 25.35546875 -71.78515625 22.41796875 C-71.70007038 15.54019394 -67.15401326 8.09932576 -62.41015625 3.35546875 C-45.76902461 -9.5215974 -17.76045881 -12.11856266 0 0 Z " fill="#221E20" transform="translate(167.41015625,24.64453125)"/>
<path d="M0 0 C3.5148344 0.58354842 6.34736785 1.49796631 9.51953125 3.109375 C10.79437378 3.74359375 10.79437378 3.74359375 12.0949707 4.390625 C12.99175537 4.83921875 13.88854004 5.2878125 14.8125 5.75 C54.59598304 25.19463911 101.9606245 27.05576497 144 14 C147.27520114 12.80418785 150.44416133 11.42363412 153.58984375 9.91796875 C156.22416612 8.91462068 158.20525037 8.82501568 161 9 C160.92578125 11.74609375 160.92578125 11.74609375 160 15 C157.67506377 16.69840124 155.74858266 17.85412385 153.1875 19.0625 C152.50896973 19.40120117 151.83043945 19.73990234 151.13134766 20.08886719 C149.1001802 21.08895855 147.0556951 22.05149238 145 23 C143.94167969 23.48855469 142.88335937 23.97710937 141.79296875 24.48046875 C134.70421193 27.5645999 127.46402973 29.99933224 120 32 C118.92621094 32.30164063 117.85242188 32.60328125 116.74609375 32.9140625 C97.9326612 37.33346378 74.62199236 37.12652496 56 32 C54.80117187 31.69835937 53.60234375 31.39671875 52.3671875 31.0859375 C42.26553475 28.40234509 32.52733259 24.97870033 23.78125 19.171875 C22.13725373 18.0902985 20.41384231 17.1321024 18.6875 16.1875 C11.9921924 12.40789087 5.12704727 7.7634255 0 2 C0 1.34 0 0.68 0 0 Z " fill="#F5A51F" transform="translate(48,127)"/>
<path d="M0 0 C0.6315322 20.58327165 0.6315322 20.58327165 -5.3125 27.8125 C-9.64118283 31.33584649 -12.9048339 33.31582833 -18.5625 33.0625 C-21.9878792 32.5484043 -23.73552526 31.75704165 -26 29.125 C-28.99473494 24.44572665 -29.54298986 20.4600647 -29 15 C-27.06909258 8.67091456 -23.90130271 5.17320889 -18.25390625 2.02734375 C-12.3397508 -0.61619767 -6.36590796 -0.28646586 0 0 Z " fill="#FAFAFA" transform="translate(150,75)"/>
<path d="M0 0 C0.80179688 0.00064453 1.60359375 0.00128906 2.4296875 0.00195312 C5.77640473 0.02713745 8.55565645 0.12271882 11.75 1.1875 C13.67659332 8.89387326 11.91262925 16.23744465 8.12890625 23.1484375 C3.64628715 29.87718617 3.64628715 29.87718617 0.52734375 30.95703125 C-0.05917969 31.03308594 -0.64570313 31.10914063 -1.25 31.1875 C0.45413343 22.86625272 0.45413343 22.86625272 1.8125 19.75 C3.2802408 16.06700009 3.2802408 16.06700009 3.75 7.1875 C-4.17 7.1875 -12.09 7.1875 -20.25 7.1875 C-20.25 6.5275 -20.25 5.8675 -20.25 5.1875 C-14.67594028 -0.16359733 -7.24683742 -0.11286058 0 0 Z " fill="#F4A725" transform="translate(212.25,123.8125)"/>
<path d="M0 0 C0.598125 0.20625 1.19625 0.4125 1.8125 0.625 C-0.1675 1.615 -0.1675 1.615 -2.1875 2.625 C-2.1875 3.285 -2.1875 3.945 -2.1875 4.625 C5.7325 4.625 13.6525 4.625 21.8125 4.625 C21.8125 15.875 21.8125 15.875 19.3125 22.25 C18.61640625 24.06371094 18.61640625 24.06371094 17.90625 25.9140625 C17.5453125 26.80867188 17.184375 27.70328125 16.8125 28.625 C18.1325 28.295 19.4525 27.965 20.8125 27.625 C20.8125 28.285 20.8125 28.945 20.8125 29.625 C18.5025 29.955 16.1925 30.285 13.8125 30.625 C13.8125 29.965 13.8125 29.305 13.8125 28.625 C14.4725 28.625 15.1325 28.625 15.8125 28.625 C15.8125 27.965 15.8125 27.305 15.8125 26.625 C15.1525 26.295 14.4925 25.965 13.8125 25.625 C13.8125 23.645 13.8125 21.665 13.8125 19.625 C13.1525 20.285 12.4925 20.945 11.8125 21.625 C9.4296875 22.0390625 9.4296875 22.0390625 6.6875 22.25 C5.77742187 22.32476562 4.86734375 22.39953125 3.9296875 22.4765625 C2.88167969 22.55003906 2.88167969 22.55003906 1.8125 22.625 C1.8125 23.285 1.8125 23.945 1.8125 24.625 C2.4725 24.955 3.1325 25.285 3.8125 25.625 C1.8325 25.295 -0.1475 24.965 -2.1875 24.625 C0.30743496 21.80868359 3.07812818 20.21544019 6.375 18.4375 C7.34566406 17.90769531 8.31632813 17.37789062 9.31640625 16.83203125 C11.8125 15.625 11.8125 15.625 13.8125 15.625 C13.8125 12.655 13.8125 9.685 13.8125 6.625 C10.1825 7.285 6.5525 7.945 2.8125 8.625 C3.1425 7.965 3.4725 7.305 3.8125 6.625 C1.1725 6.295 -1.4675 5.965 -4.1875 5.625 C-4.5175 4.305 -4.8475 2.985 -5.1875 1.625 C-2.1875 -0.375 -2.1875 -0.375 0 0 Z " fill="#FBF8EA" transform="translate(194.1875,126.375)"/>
<path d="M0 0 C-0.05859375 2.73828125 -0.05859375 2.73828125 -1 6 C-3.4059848 7.73243042 -5.42488298 8.94063795 -8.0625 10.1875 C-8.7419165 10.52845703 -9.42133301 10.86941406 -10.12133789 11.22070312 C-14.64511058 13.45690772 -19.1992781 15.43241734 -24 17 C-23.67 15.35 -23.34 13.7 -23 12 C-28.94 12 -34.88 12 -41 12 C-37.93145033 10.46572516 -35.88207336 9.61491538 -32.65625 8.88671875 C-31.82746338 8.69295654 -30.99867676 8.49919434 -30.14477539 8.29956055 C-29.27199951 8.09758057 -28.39922363 7.89560059 -27.5 7.6875 C-20.43306652 6.00435093 -13.97624188 4.06079324 -7.41015625 0.91796875 C-4.77583388 -0.08537932 -2.79474963 -0.17498432 0 0 Z " fill="#F2A92B" transform="translate(209,136)"/>
<path d="M0 0 C3.3 0.66 6.6 1.32 10 2 C10 2.33 10 2.66 10 3 C9.36191406 3.19335938 8.72382812 3.38671875 8.06640625 3.5859375 C7.24011719 3.84632813 6.41382812 4.10671875 5.5625 4.375 C4.32693359 4.75785156 4.32693359 4.75785156 3.06640625 5.1484375 C0.82201984 5.80882227 0.82201984 5.80882227 0 8 C0.99 8 1.98 8 3 8 C3 7.34 3 6.68 3 6 C4.65 6 6.3 6 8 6 C8 6.66 8 7.32 8 8 C7.34 8 6.68 8 6 8 C6 8.99 6 9.98 6 11 C9.3 11.99 12.6 12.98 16 14 C16 14.33 16 14.66 16 15 C9.67976353 14.47150371 4.43083418 12.92232972 -1.4375 10.5625 C-2.25154297 10.24990234 -3.06558594 9.93730469 -3.90429688 9.61523438 C-9.86888393 7.26223214 -9.86888393 7.26223214 -11 5 C-7.7 5 -4.4 5 -1 5 C-1.66 4.67 -2.32 4.34 -3 4 C-3 3.34 -3 2.68 -3 2 C-2.01 2 -1.02 2 0 2 C0 1.34 0 0.68 0 0 Z " fill="#F2AC35" transform="translate(88,143)"/>
<path d="M0 0 C0.80179688 -0.00773437 1.60359375 -0.01546875 2.4296875 -0.0234375 C6.37092724 -0.0102561 8.40238893 0.01825929 11.75 2.25 C5.81 2.25 -0.13 2.25 -6.25 2.25 C-5.59 2.58 -4.93 2.91 -4.25 3.25 C-4.25 3.91 -4.25 4.57 -4.25 5.25 C-0.95 5.58 2.35 5.91 5.75 6.25 C5.42 8.89 5.09 11.53 4.75 14.25 C4.42 14.25 4.09 14.25 3.75 14.25 C3.75 11.94 3.75 9.63 3.75 7.25 C-4.17 7.25 -12.09 7.25 -20.25 7.25 C-20.25 6.59 -20.25 5.93 -20.25 5.25 C-14.69881031 -0.0791421 -7.2273374 -0.07108856 0 0 Z " fill="#EFAF3E" transform="translate(212.25,123.75)"/>
<path d="M0 0 C0 0.33 0 0.66 0 1 C2.475 1.495 2.475 1.495 5 2 C5 2.33 5 2.66 5 3 C-1.85983809 4.05728087 -8.56783224 4.11639843 -15.5 4.0625 C-16.60859375 4.05798828 -17.7171875 4.05347656 -18.859375 4.04882812 C-21.57297399 4.03713158 -24.28645761 4.02074086 -27 4 C-27 3.01 -27 2.02 -27 1 C-24.00013007 0.8306525 -21.00013908 0.66445207 -18 0.5 C-17.16082031 0.45230469 -16.32164062 0.40460938 -15.45703125 0.35546875 C-10.29532696 0.07537627 -5.16925753 -0.0478635 0 0 Z " fill="#FBF4DF" transform="translate(155,146)"/>
<path d="M0 0 C1.93166016 0.01740234 1.93166016 0.01740234 3.90234375 0.03515625 C5.19269531 0.04417969 6.48304688 0.05320312 7.8125 0.0625 C8.81152344 0.07410156 9.81054688 0.08570312 10.83984375 0.09765625 C11.16984375 1.08765625 11.49984375 2.07765625 11.83984375 3.09765625 C10.84984375 4.58265625 10.84984375 4.58265625 9.83984375 6.09765625 C9.50984375 5.10765625 9.17984375 4.11765625 8.83984375 3.09765625 C8.50984375 3.75765625 8.17984375 4.41765625 7.83984375 5.09765625 C2.22984375 5.09765625 -3.38015625 5.09765625 -9.16015625 5.09765625 C-9.16015625 4.76765625 -9.16015625 4.43765625 -9.16015625 4.09765625 C-6.52015625 4.09765625 -3.88015625 4.09765625 -1.16015625 4.09765625 C-1.16015625 3.43765625 -1.16015625 2.77765625 -1.16015625 2.09765625 C-2.15015625 1.76765625 -3.14015625 1.43765625 -4.16015625 1.09765625 C-3.16015625 0.09765625 -3.16015625 0.09765625 0 0 Z " fill="#F5A416" transform="translate(209.16015625,124.90234375)"/>
<path d="M0 0 C0.66 0 1.32 0 2 0 C2 0.66 2 1.32 2 2 C2.99 2 3.98 2 5 2 C5 2.66 5 3.32 5 4 C-2.28571429 8.57142857 -2.28571429 8.57142857 -7 8 C-6.67 7.34 -6.34 6.68 -6 6 C-6.66 5.67 -7.32 5.34 -8 5 C-8 4.34 -8 3.68 -8 3 C-8.66 2.67 -9.32 2.34 -10 2 C-9.04287109 1.90912109 -9.04287109 1.90912109 -8.06640625 1.81640625 C-6.82697266 1.69072266 -6.82697266 1.69072266 -5.5625 1.5625 C-4.73878906 1.48128906 -3.91507813 1.40007812 -3.06640625 1.31640625 C-1.01337975 1.21069185 -1.01337975 1.21069185 0 0 Z " fill="#F4A41A" transform="translate(195,142)"/>
<path d="M0 0 C0.78761719 -0.00945648 1.57523438 -0.01891296 2.38671875 -0.02865601 C3.64935547 -0.01954697 3.64935547 -0.01954697 4.9375 -0.01025391 C6.24654297 -0.01455917 6.24654297 -0.01455917 7.58203125 -0.01895142 C9.42448578 -0.02099008 11.26696205 -0.01547405 13.109375 -0.00292969 C15.92757621 0.01312705 18.74434333 -0.00278479 21.5625 -0.02197266 C23.35416983 -0.01999019 25.14583876 -0.01614644 26.9375 -0.01025391 C27.77925781 -0.0163266 28.62101562 -0.02239929 29.48828125 -0.02865601 C30.27589844 -0.01919952 31.06351563 -0.00974304 31.875 0 C32.90947266 0.00358017 32.90947266 0.00358017 33.96484375 0.00723267 C35.9375 0.38818359 35.9375 0.38818359 39.9375 3.38818359 C24.0975 3.38818359 8.2575 3.38818359 -8.0625 3.38818359 C-3.5613557 0.01232537 -3.5613557 0.01232537 0 0 Z " fill="#FDF0CF" transform="translate(120.0625,160.61181640625)"/>
<path d="M0 0 C4.23322844 0.62045463 7.52290295 2.10523559 11.3125 4.0625 C12.38113281 4.61035156 13.44976562 5.15820312 14.55078125 5.72265625 C15.35902344 6.14417969 16.16726562 6.56570312 17 7 C14 8 14 8 11 7 C11.33 8.32 11.66 9.64 12 11 C7.25453357 8.48769424 3.57278975 6.11412154 0 2 C0 1.34 0 0.68 0 0 Z " fill="#EAAE36" transform="translate(48,127)"/>
<path d="M0 0 C0.66 0.66 1.32 1.32 2 2 C1.625 4.625 1.625 4.625 1 7 C1.66 7 2.32 7 3 7 C3.33 5.68 3.66 4.36 4 3 C5 6 5 6 4.14453125 7.7890625 C3.70496094 8.39492187 3.26539063 9.00078125 2.8125 9.625 C2.38582031 10.23601562 1.95914063 10.84703125 1.51953125 11.4765625 C-0.26692012 13.26760629 -1.53471865 13.60935585 -4 14 C-3.00956295 9.16371695 -2.04301154 4.52381127 0 0 Z " fill="#ECAB32" transform="translate(215,141)"/>
<path d="M0 0 C0 0.66 0 1.32 0 2 C-0.99 2 -1.98 2 -3 2 C-3 2.66 -3 3.32 -3 4 C-2.01 4.33 -1.02 4.66 0 5 C-1.87643761 6.87643761 -4.49805701 6.17984987 -6.9921875 6.23046875 C-9 6 -9 6 -12 4 C-12 3.34 -12 2.68 -12 2 C-8.09971775 -0.60018816 -4.52565431 -0.15085514 0 0 Z " fill="#F8A317" transform="translate(88,143)"/>
<path d="M0 0 C1.32 0.33 2.64 0.66 4 1 C4.33 2.32 4.66 3.64 5 5 C5 4.34 5 3.68 5 3 C5.99 3.33 6.98 3.66 8 4 C7.6875 5.875 7.6875 5.875 7 8 C6.01 8.66 5.02 9.32 4 10 C2.68 9.67 1.36 9.34 0 9 C0 6.03 0 3.06 0 0 Z " fill="#282426" transform="translate(179,105)"/>
<path d="M0 0 C-3.11859635 2.07906423 -5.74564048 3.0142133 -9.3125 4.125 C-10.42238281 4.47820312 -11.53226563 4.83140625 -12.67578125 5.1953125 C-15.92516193 5.98188409 -18.67307392 6.15099513 -22 6 C-22 5.34 -22 4.68 -22 4 C-20.82630859 3.80083984 -20.82630859 3.80083984 -19.62890625 3.59765625 C-18.61699219 3.42105469 -17.60507813 3.24445313 -16.5625 3.0625 C-15.55316406 2.88847656 -14.54382813 2.71445313 -13.50390625 2.53515625 C-11.0712562 2.25248903 -11.0712562 2.25248903 -10 1 C-10.66 0.34 -11.32 -0.32 -12 -1 C-7.47907032 -2.45606519 -4.48351204 -1.27032841 0 0 Z " fill="#ECAA2D" transform="translate(184,153)"/>
<path d="M0 0 C-0.33 1.32 -0.66 2.64 -1 4 C-4.3 4.33 -7.6 4.66 -11 5 C-11 5.66 -11 6.32 -11 7 C-10.34 7.33 -9.68 7.66 -9 8 C-11.97 7.505 -11.97 7.505 -15 7 C-11.19676155 2.52560182 -5.96922975 -0.723543 0 0 Z " fill="#F9F2DA" transform="translate(207,144)"/>
<path d="M0 0 C-0.33 1.98 -0.66 3.96 -1 6 C-4.875 5.125 -4.875 5.125 -6 4 C-7.99958364 3.95919217 -10.00045254 3.95745644 -12 4 C-7.72679547 1.15119698 -5.21831143 -0.28990619 0 0 Z " fill="#EDAF3D" transform="translate(209,136)"/>
<path d="M0 0 C4.62 0 9.24 0 14 0 C14 0.66 14 1.32 14 2 C16.64 2.33 19.28 2.66 22 3 C22 3.33 22 3.66 22 4 C14.46783285 3.55761615 7.3197277 2.86094772 0 1 C0 0.67 0 0.34 0 0 Z " fill="#F9E9C3" transform="translate(98,145)"/>
<path d="M0 0 C0 0.33 0 0.66 0 1 C2.64 1.33 5.28 1.66 8 2 C8 2.33 8 2.66 8 3 C0.08 3.495 0.08 3.495 -8 4 C-5.55533545 -0.8893291 -4.94253549 -1.48276065 0 0 Z " fill="#FBF3DF" transform="translate(208,121)"/>
<path d="M0 0 C1.9375 0.3125 1.9375 0.3125 4 1 C5 4 5 4 4 7 C3.34 6.67 2.68 6.34 2 6 C-0.09821215 6.39938767 -0.09821215 6.39938767 -2 7 C-2.33 6.34 -2.66 5.68 -3 5 C-1.5625 2.375 -1.5625 2.375 0 0 Z " fill="#2B2728" transform="translate(98,77)"/>
<path d="M0 0 C6.6 0.33 13.2 0.66 20 1 C20 1.33 20 1.66 20 2 C13.4 2.33 6.8 2.66 0 3 C0 2.01 0 1.02 0 0 Z " fill="#EDAD36" transform="translate(108,148)"/>
<path d="M0 0 C2.64 0.33 5.28 0.66 8 1 C8 2.65 8 4.3 8 6 C5.03 5.505 5.03 5.505 2 5 C2 4.01 2 3.02 2 2 C1.34 2 0.68 2 0 2 C0 1.34 0 0.68 0 0 Z " fill="#F6A416" transform="translate(64,137)"/>
<path d="M0 0 C1.32 0.66 2.64 1.32 4 2 C3.34 2.66 2.68 3.32 2 4 C4.475 4.99 4.475 4.99 7 6 C7 6.66 7 7.32 7 8 C2.87248551 7.39301257 -0.3321148 5.96189209 -4 4 C-3.01 3.67 -2.02 3.34 -1 3 C-0.67 2.01 -0.34 1.02 0 0 Z " fill="#FAF1D7" transform="translate(63,128)"/>
<path d="M0 0 C3.96 1.32 7.92 2.64 12 4 C8.66203244 4.83449189 5.39305036 5.46019653 2 6 C1.34 4.02 0.68 2.04 0 0 Z " fill="#FCF8E5" transform="translate(84,152)"/>
<path d="M0 0 C0.33 0 0.66 0 1 0 C1.22211116 1.93596892 1.42722992 3.87389328 1.625 5.8125 C1.74101562 6.89144531 1.85703125 7.97039062 1.9765625 9.08203125 C2 12 2 12 0 15 C-0.66 15 -1.32 15 -2 15 C-2 12.36 -2 9.72 -2 7 C-1.34 7 -0.68 7 0 7 C0 4.69 0 2.38 0 0 Z " fill="#F7A614" transform="translate(218,133)"/>
<path d="M0 0 C0 0.66 0 1.32 0 2 C-1.98 2 -3.96 2 -6 2 C-6 2.66 -6 3.32 -6 4 C-8.31 3.34 -10.62 2.68 -13 2 C-13 1.67 -13 1.34 -13 1 C-8.62426048 0.40667939 -4.42471556 -0.13827236 0 0 Z " fill="#F1A50E" transform="translate(112,154)"/>
<path d="M0 0 C5.61 0 11.22 0 17 0 C15.02 0.99 15.02 0.99 13 2 C12.01 2.66 11.02 3.32 10 4 C9.34 3.34 8.68 2.68 8 2 C5.34462628 1.43479997 2.70855287 1.26211802 0 1 C0 0.67 0 0.34 0 0 Z " fill="#0F0E0E" transform="translate(131,18)"/>
<path d="M0 0 C1.09570312 0.19464844 2.19140625 0.38929688 3.3203125 0.58984375 C4.16335937 0.74582031 5.00640625 0.90179688 5.875 1.0625 C5.875 1.3925 5.875 1.7225 5.875 2.0625 C1.255 2.0625 -3.365 2.0625 -8.125 2.0625 C-8.125 1.4025 -8.125 0.7425 -8.125 0.0625 C-5.2144446 -1.3927777 -3.16650948 -0.57266661 0 0 Z " fill="#F5A410" transform="translate(102.125,150.9375)"/>
<path d="M0 0 C1.32 0 2.64 0 4 0 C5.35439668 2.70879335 5.06501451 5.00933268 5 8 C5.66 8 6.32 8 7 8 C6.67 8.99 6.34 9.98 6 11 C5.67 10.67 5.34 10.34 5 10 C4.34 10.66 3.68 11.32 3 12 C3 8.37 3 4.74 3 1 C2.01 0.67 1.02 0.34 0 0 Z " fill="#FAEED0" transform="translate(221,124)"/>
<path d="M0 0 C0.598125 0.20625 1.19625 0.4125 1.8125 0.625 C-0.1675 1.615 -0.1675 1.615 -2.1875 2.625 C-2.1875 3.285 -2.1875 3.945 -2.1875 4.625 C-0.5375 4.625 1.1125 4.625 2.8125 4.625 C2.8125 4.955 2.8125 5.285 2.8125 5.625 C0.5025 5.625 -1.8075 5.625 -4.1875 5.625 C-4.5175 4.305 -4.8475 2.985 -5.1875 1.625 C-2.1875 -0.375 -2.1875 -0.375 0 0 Z " fill="#FAF2D4" transform="translate(194.1875,126.375)"/>
<path d="M0 0 C-5.28 -0.33 -10.56 -0.66 -16 -1 C-16 -1.33 -16 -1.66 -16 -2 C-9.31240995 -3.00313851 -6.1322488 -3.0661244 0 0 Z " fill="#FCF7E0" transform="translate(160,164)"/>
<path d="M0 0 C0.33 0.66 0.66 1.32 1 2 C1.99 2.33 2.98 2.66 4 3 C4 3.99 4 4.98 4 6 C4.33 6.66 4.66 7.32 5 8 C3.35 7.67 1.7 7.34 0 7 C0 4.69 0 2.38 0 0 Z " fill="#313031" transform="translate(96,43)"/>
<path d="M0 0 C0.66 0.99 1.32 1.98 2 3 C1 6 1 6 -1.0625 7.1875 C-1.701875 7.455625 -2.34125 7.72375 -3 8 C-3 4.42424104 -1.91159393 2.94704065 0 0 Z " fill="#F9F5DD" transform="translate(221,144)"/>
<path d="M0 0 C0 0.66 0 1.32 0 2 C-2.31 2.33 -4.62 2.66 -7 3 C-7 3.66 -7 4.32 -7 5 C-7.99 5 -8.98 5 -10 5 C-9 2 -9 2 -7.25 0.8125 C-4.70039426 -0.10819096 -2.69076919 -0.14948718 0 0 Z " fill="#F6A511" transform="translate(98,146)"/>
<path d="M0 0 C3 1 3 1 4 3 C5.32 2.67 6.64 2.34 8 2 C8 2.99 8 3.98 8 5 C6.35 5.33 4.7 5.66 3 6 C2.67 4.68 2.34 3.36 2 2 C1.34 2 0.68 2 0 2 C0 1.34 0 0.68 0 0 Z " fill="#191818" transform="translate(168,34)"/>
<path d="M0 0 C2.64 0.33 5.28 0.66 8 1 C8 1.66 8 2.32 8 3 C4.7 3 1.4 3 -2 3 C-1.34 2.01 -0.68 1.02 0 0 Z " fill="#FAF9E8" transform="translate(96,157)"/>
<path d="M0 0 C2.5 1.8125 2.5 1.8125 5 4 C5 4.99 5 5.98 5 7 C3.68 6.67 2.36 6.34 1 6 C0.67 4.02 0.34 2.04 0 0 Z " fill="#F7F6ED" transform="translate(48,129)"/>
<path d="M0 0 C0 0.66 0 1.32 0 2 C0.66 2.66 1.32 3.32 2 4 C-4.625 3.25 -4.625 3.25 -8 1 C-5.23735711 0.40267181 -2.83967231 0 0 0 Z " fill="#F7E8C0" transform="translate(88,139)"/>
<path d="M0 0 C1.65 0 3.3 0 5 0 C5 0.66 5 1.32 5 2 C4.01 2 3.02 2 2 2 C1.34 3.32 0.68 4.64 0 6 C-1.125 2.25 -1.125 2.25 0 0 Z " fill="#F6FEF8" transform="translate(211,133)"/>
<path d="M0 0 C0.33 0.66 0.66 1.32 1 2 C3.01669827 3.13350534 3.01669827 3.13350534 5 4 C4.67 4.66 4.34 5.32 4 6 C-0.455 4.02 -0.455 4.02 -5 2 C-5 1.67 -5 1.34 -5 1 C-3.35 0.67 -1.7 0.34 0 0 Z " fill="#FBF0D5" transform="translate(53,125)"/>
<path d="M0 0 C3.465 1.98 3.465 1.98 7 4 C6.01 4.66 5.02 5.32 4 6 C3.01 5.67 2.02 5.34 1 5 C0.67 3.35 0.34 1.7 0 0 Z " fill="#FAF5DE" transform="translate(59,138)"/>
<path d="M0 0 C0.66 0.33 1.32 0.66 2 1 C0.71937515 2.7074998 -0.61767557 4.37373596 -2 6 C-2.66 6 -3.32 6 -4 6 C-4.33 6.99 -4.66 7.98 -5 9 C-5.33 8.34 -5.66 7.68 -6 7 C-4.02 4.69 -2.04 2.38 0 0 Z " fill="#E6E5E6" transform="translate(128,79)"/>
<path d="M0 0 C-3.90028225 2.60018816 -7.47434569 2.15085514 -12 2 C-12 1.67 -12 1.34 -12 1 C-7.53763531 -0.80619523 -4.68965706 -1.11658501 0 0 Z " fill="#FCF1D5" transform="translate(172,146)"/>
<path d="M0 0 C3.16115776 1.36983503 3.9927092 1.9890638 6 5 C5.34 5.66 4.68 6.32 4 7 C0 2.25 0 2.25 0 0 Z " fill="#E9E8E8" transform="translate(96,116)"/>
<path d="M0 0 C1.32 1.65 2.64 3.3 4 5 C3.67 5.66 3.34 6.32 3 7 C1.68 6.34 0.36 5.68 -1 5 C-0.67 3.35 -0.34 1.7 0 0 Z " fill="#272627" transform="translate(122,101)"/>
<path d="M0 0 C1.98 0.495 1.98 0.495 4 1 C3.34 2.32 2.68 3.64 2 5 C1.01 5 0.02 5 -1 5 C-0.67 3.35 -0.34 1.7 0 0 Z " fill="#272526" transform="translate(94,85)"/>
</svg>
