<svg id="svg" version="1.1" xmlns="http://www.w3.org/2000/svg" xmlns:xlink="http://www.w3.org/1999/xlink" width="400" height="400" viewBox="0, 0, 400,400"><g id="svgg"><path id="path0" d="M354.583 292.107 C 354.308 292.138,353.146 292.244,352.000 292.342 C 347.689 292.710,342.742 293.685,338.083 295.084 C 336.983 295.414,335.551 295.825,334.899 295.998 C 333.323 296.414,330.135 297.631,327.167 298.948 C 319.805 302.215,316.167 305.029,316.167 307.458 C 316.167 309.410,317.463 309.655,323.953 308.925 C 328.706 308.391,336.389 307.699,343.833 307.137 C 347.850 306.833,356.772 306.883,359.500 307.224 C 370.833 308.642,373.240 311.456,371.747 321.543 C 370.602 329.281,365.890 344.477,361.304 355.216 C 360.748 356.518,360.160 357.958,359.997 358.417 C 359.835 358.875,359.508 359.775,359.271 360.417 C 357.073 366.371,362.076 366.535,367.976 360.702 C 369.528 359.166,370.291 358.322,372.373 355.833 C 373.055 355.018,376.000 351.034,376.000 350.927 C 376.000 350.867,376.589 349.940,377.309 348.867 C 378.896 346.502,380.000 344.644,380.000 344.337 C 380.000 344.212,380.104 343.991,380.232 343.846 C 380.567 343.467,383.595 337.390,383.893 336.500 C 384.031 336.087,384.493 334.850,384.920 333.750 C 385.907 331.206,387.363 326.906,387.715 325.500 C 391.608 309.932,392.328 302.014,390.205 298.113 C 388.669 295.291,381.972 293.109,372.202 292.247 C 369.685 292.025,356.245 291.918,354.583 292.107 M12.336 295.846 C 9.907 296.948,9.641 299.621,11.665 302.587 C 15.476 308.174,32.808 325.306,41.637 332.215 C 42.433 332.837,43.346 333.588,43.667 333.884 C 44.468 334.624,45.781 335.669,46.596 336.216 C 46.970 336.467,47.495 336.882,47.763 337.139 C 48.031 337.396,48.938 338.126,49.778 338.762 C 53.724 341.744,56.408 343.726,57.609 344.544 C 58.331 345.036,59.587 345.946,60.401 346.566 C 61.214 347.187,62.076 347.780,62.315 347.884 C 62.554 347.989,63.336 348.504,64.053 349.031 C 64.770 349.557,66.102 350.459,67.014 351.036 C 67.926 351.612,69.740 352.788,71.044 353.650 C 72.349 354.512,73.979 355.514,74.667 355.878 C 75.354 356.242,76.036 356.644,76.182 356.772 C 76.608 357.145,80.136 359.264,81.518 359.977 C 82.216 360.338,83.266 360.928,83.852 361.290 C 85.352 362.217,86.097 362.629,88.750 364.001 C 90.033 364.665,91.821 365.619,92.723 366.122 C 93.625 366.624,94.937 367.297,95.640 367.617 C 96.342 367.937,98.417 368.932,100.250 369.827 C 102.083 370.723,104.108 371.663,104.750 371.916 C 105.392 372.169,106.554 372.673,107.333 373.037 C 109.743 374.161,113.682 375.825,114.380 376.013 C 114.745 376.111,115.428 376.366,115.897 376.580 C 117.215 377.180,122.087 379.062,123.667 379.581 C 124.446 379.837,126.021 380.370,127.167 380.765 C 130.338 381.859,134.770 383.281,136.167 383.651 C 136.854 383.834,138.504 384.283,139.833 384.649 C 145.444 386.194,150.000 387.338,152.167 387.747 C 152.946 387.894,155.121 388.307,157.000 388.666 C 171.455 391.422,181.187 392.333,196.250 392.338 C 212.350 392.345,224.188 391.325,238.917 388.664 C 240.933 388.300,243.258 387.885,244.083 387.741 C 246.839 387.264,251.757 386.075,261.417 383.550 C 262.333 383.311,265.221 382.415,267.833 381.559 C 270.446 380.703,272.677 380.002,272.792 380.001 C 273.034 380.000,277.794 378.241,280.858 377.021 C 282.018 376.559,283.430 376.025,283.996 375.835 C 284.935 375.518,289.568 373.537,291.583 372.589 C 292.042 372.374,292.979 371.975,293.667 371.704 C 294.354 371.432,296.336 370.488,298.071 369.605 C 299.806 368.722,301.306 368.000,301.404 367.999 C 301.503 367.999,302.971 367.238,304.667 366.309 C 306.362 365.379,308.425 364.271,309.250 363.845 C 310.075 363.420,311.612 362.543,312.667 361.896 C 313.721 361.249,315.221 360.360,316.000 359.921 C 316.779 359.481,318.477 358.419,319.772 357.561 C 321.068 356.702,322.178 356.000,322.239 356.000 C 322.374 356.000,329.358 351.153,330.690 350.135 C 331.207 349.740,332.088 349.079,332.647 348.667 C 339.663 343.493,347.029 336.738,350.050 332.708 C 355.619 325.279,351.612 319.437,343.500 323.159 C 342.537 323.601,341.037 324.284,340.167 324.678 C 339.296 325.072,337.571 325.877,336.333 326.466 C 335.096 327.055,333.633 327.709,333.083 327.919 C 332.030 328.321,329.714 329.328,327.960 330.145 C 327.386 330.412,326.429 330.833,325.833 331.081 C 325.237 331.329,324.525 331.627,324.250 331.743 C 323.975 331.859,322.962 332.260,322.000 332.635 C 321.037 333.009,318.794 333.920,317.015 334.658 C 315.235 335.396,313.706 336.000,313.617 336.000 C 313.527 336.000,311.720 336.665,309.602 337.479 C 305.741 338.961,304.706 339.336,300.833 340.656 C 299.688 341.046,297.012 341.959,294.888 342.683 C 292.763 343.407,290.919 344.000,290.788 344.000 C 290.658 344.000,288.909 344.519,286.901 345.152 C 282.403 346.572,278.276 347.794,277.500 347.935 C 277.179 347.993,274.816 348.590,272.248 349.261 C 266.265 350.823,262.210 351.806,261.023 351.982 C 260.506 352.058,257.458 352.654,254.250 353.305 C 247.662 354.643,241.186 355.772,238.833 355.995 C 237.963 356.078,235.150 356.411,232.583 356.736 C 210.314 359.558,187.745 359.564,166.583 356.753 C 164.842 356.522,162.704 356.251,161.833 356.152 C 155.476 355.424,139.761 352.252,132.583 350.247 C 131.850 350.042,129.712 349.449,127.833 348.929 C 125.954 348.409,123.854 347.828,123.167 347.638 C 122.479 347.448,119.667 346.551,116.917 345.645 C 114.167 344.740,111.429 343.839,110.833 343.644 C 110.237 343.449,107.987 342.613,105.833 341.786 C 103.679 340.959,101.579 340.186,101.167 340.068 C 100.754 339.949,99.367 339.411,98.083 338.870 C 96.800 338.330,94.700 337.455,93.417 336.925 C 88.963 335.087,88.401 334.843,85.500 333.494 C 83.896 332.748,82.375 332.074,82.121 331.996 C 81.866 331.918,79.901 330.987,77.753 329.927 C 75.606 328.867,73.765 328.000,73.662 328.000 C 73.560 328.000,72.113 327.272,70.446 326.382 C 68.780 325.491,67.042 324.587,66.583 324.372 C 65.249 323.746,64.039 323.118,62.167 322.079 C 61.204 321.545,59.592 320.686,58.583 320.170 C 57.575 319.655,55.663 318.604,54.333 317.835 C 53.004 317.066,51.556 316.261,51.116 316.047 C 50.676 315.833,49.401 315.110,48.283 314.441 C 47.165 313.772,45.500 312.809,44.583 312.302 C 43.667 311.794,42.242 310.969,41.417 310.469 C 39.237 309.147,37.505 308.127,36.798 307.748 C 36.458 307.566,35.108 306.750,33.798 305.936 C 32.488 305.121,30.955 304.209,30.390 303.908 C 29.825 303.608,28.625 302.880,27.723 302.292 C 26.821 301.704,24.733 300.416,23.083 299.431 C 21.433 298.446,19.521 297.285,18.833 296.852 C 16.634 295.467,14.053 295.067,12.336 295.846 " stroke="none" fill="#fc9c04" fill-rule="evenodd"></path><path id="path1" d="M195.750 0.102 C 195.383 0.135,194.033 0.240,192.750 0.337 C 185.456 0.886,178.653 1.870,171.000 3.481 C 169.762 3.741,168.225 4.050,167.583 4.167 C 165.943 4.466,160.594 5.970,157.333 7.049 C 155.821 7.550,154.358 8.011,154.083 8.073 C 152.912 8.341,146.087 11.103,142.417 12.795 C 139.422 14.176,134.090 17.102,131.583 18.740 C 130.575 19.399,129.626 19.984,129.474 20.041 C 129.213 20.139,127.962 21.038,124.333 23.736 C 122.562 25.054,120.756 26.522,120.245 27.060 C 120.059 27.256,119.534 27.711,119.078 28.071 C 117.880 29.019,112.431 34.526,111.904 35.323 C 111.657 35.695,111.404 36.000,111.340 36.000 C 110.874 36.000,105.299 43.566,103.418 46.750 C 102.985 47.483,102.329 48.567,101.961 49.159 C 100.265 51.882,96.982 58.925,95.743 62.500 C 89.644 80.094,89.543 85.391,95.237 88.917 C 97.448 90.286,97.870 90.376,106.095 91.239 C 110.122 91.661,121.510 92.892,131.403 93.974 C 151.096 96.127,150.374 96.086,152.250 95.171 C 155.356 93.657,157.478 90.569,158.579 85.963 C 159.750 81.063,160.903 77.987,162.764 74.799 C 163.444 73.635,164.000 72.642,164.000 72.593 C 164.000 72.073,168.310 67.176,170.268 65.472 C 172.056 63.917,176.612 60.782,177.834 60.268 C 178.246 60.094,179.135 59.696,179.810 59.383 C 182.625 58.077,187.234 56.578,189.667 56.178 C 196.758 55.012,202.684 55.015,209.417 56.187 C 212.447 56.715,218.526 59.248,221.417 61.189 C 229.395 66.543,233.322 73.991,234.938 86.833 C 235.173 88.701,235.232 91.081,235.290 100.854 L 235.360 112.625 234.638 112.727 C 233.946 112.825,226.155 113.676,211.583 115.243 C 207.825 115.648,204.132 116.023,203.377 116.076 C 199.836 116.329,190.579 117.601,180.917 119.164 C 178.167 119.608,175.354 120.056,174.667 120.159 C 172.738 120.447,166.583 121.751,163.250 122.577 C 159.620 123.478,157.795 123.922,156.250 124.281 C 153.780 124.855,143.349 128.331,140.833 129.418 C 140.054 129.755,138.967 130.219,138.417 130.448 C 137.867 130.678,136.929 131.106,136.333 131.400 C 135.737 131.693,134.930 132.036,134.538 132.161 C 134.147 132.286,132.535 133.097,130.955 133.962 C 129.376 134.827,127.546 135.819,126.889 136.165 C 124.504 137.423,117.424 142.220,116.160 143.433 C 115.835 143.745,115.510 144.000,115.438 144.000 C 115.269 144.000,113.031 145.829,112.105 146.724 C 111.711 147.105,110.870 147.858,110.236 148.398 C 109.031 149.423,104.003 154.577,103.996 154.793 C 103.994 154.861,103.574 155.364,103.062 155.910 C 101.892 157.157,100.000 159.571,100.000 159.816 C 100.000 159.917,99.944 160.000,99.875 160.000 C 99.806 160.000,98.977 161.106,98.033 162.458 C 93.416 169.066,89.837 176.268,87.285 184.083 C 85.185 190.517,84.502 193.421,83.585 199.833 C 82.025 210.734,82.050 221.678,83.658 232.583 C 83.834 233.775,84.023 235.162,84.079 235.667 C 84.323 237.872,85.934 244.080,87.192 247.667 C 87.562 248.721,87.934 249.869,88.018 250.219 C 88.628 252.724,92.700 260.930,95.147 264.583 C 95.577 265.225,96.026 265.944,96.145 266.181 C 97.171 268.230,105.064 277.021,108.001 279.386 C 110.024 281.015,113.649 283.737,114.000 283.890 C 114.229 283.990,115.054 284.496,115.833 285.015 C 119.151 287.224,129.119 292.000,130.412 292.000 C 130.544 292.000,131.649 292.330,132.867 292.733 C 141.507 295.589,148.917 296.585,161.500 296.581 C 176.405 296.577,186.723 295.332,196.000 292.420 C 196.688 292.204,197.548 291.977,197.912 291.916 C 199.321 291.678,206.708 288.694,210.000 287.032 C 213.217 285.408,219.671 281.629,220.000 281.176 C 220.130 280.997,221.627 280.001,221.780 279.992 C 222.443 279.952,236.000 268.996,236.000 268.500 C 236.000 268.417,236.319 268.128,236.708 267.858 C 237.098 267.588,239.285 265.527,241.569 263.278 L 245.721 259.189 246.168 259.752 C 246.414 260.061,246.938 260.825,247.334 261.449 C 248.577 263.412,251.614 267.837,251.830 268.000 C 251.891 268.046,251.986 268.206,252.041 268.355 C 252.174 268.718,254.037 271.335,255.051 272.583 C 255.497 273.133,255.922 273.733,255.996 273.917 C 256.069 274.100,256.418 274.601,256.773 275.029 C 257.127 275.458,258.017 276.539,258.750 277.432 C 263.903 283.706,274.268 293.278,277.012 294.295 C 281.744 296.051,286.505 294.448,291.625 289.377 C 292.017 288.988,292.731 288.363,293.211 287.986 C 293.691 287.610,294.854 286.584,295.795 285.706 C 296.736 284.827,297.711 283.981,297.962 283.824 C 298.212 283.668,298.942 283.038,299.583 282.424 C 300.225 281.810,301.304 280.859,301.982 280.311 C 302.659 279.762,303.897 278.688,304.732 277.924 C 305.567 277.160,306.642 276.209,307.121 275.809 C 309.305 273.987,319.619 265.085,319.917 264.764 C 320.100 264.566,320.668 264.089,321.180 263.704 C 321.691 263.319,322.779 262.392,323.596 261.645 C 324.414 260.897,325.346 260.119,325.667 259.915 C 328.710 257.982,330.645 255.053,330.789 252.167 C 330.969 248.532,329.716 245.931,324.629 239.381 C 324.329 238.994,323.859 238.319,323.585 237.881 C 323.311 237.442,322.751 236.671,322.340 236.167 C 321.652 235.322,318.885 231.266,317.216 228.653 C 316.014 226.773,312.687 220.043,312.195 218.500 C 310.303 212.558,309.641 209.814,308.964 205.108 L 308.601 202.583 308.498 144.500 C 308.396 86.858,308.370 84.300,307.825 76.605 C 307.405 70.662,306.338 64.307,304.800 58.583 C 304.430 57.208,304.073 55.821,304.005 55.500 C 303.685 53.991,302.312 50.212,301.235 47.876 C 300.991 47.348,300.534 46.317,300.218 45.583 C 299.472 43.850,298.165 41.424,297.077 39.750 C 296.600 39.017,296.078 38.157,295.916 37.840 C 295.596 37.212,292.462 33.026,291.108 31.417 C 286.602 26.064,276.526 17.582,272.844 16.042 C 272.529 15.911,272.041 15.631,271.761 15.421 C 271.092 14.920,265.645 12.000,265.380 12.000 C 265.267 12.000,264.592 11.709,263.879 11.353 C 259.147 8.990,244.641 4.000,242.503 4.000 C 242.303 4.000,241.526 3.844,240.778 3.652 C 237.287 2.761,229.519 1.376,224.937 0.829 C 219.155 0.138,218.733 0.120,207.500 0.082 C 201.404 0.061,196.117 0.070,195.750 0.102 M235.285 169.625 C 235.239 178.363,235.128 185.554,235.019 186.917 C 233.876 201.225,230.996 211.382,225.355 221.000 C 223.564 224.054,223.384 224.330,221.888 226.309 C 221.170 227.258,220.381 228.313,220.133 228.655 C 218.908 230.346,214.528 234.561,212.049 236.436 C 210.597 237.534,207.602 239.448,206.667 239.875 C 206.071 240.147,204.983 240.652,204.250 240.998 C 199.579 243.200,196.358 243.886,190.333 243.964 C 183.677 244.050,181.025 243.502,175.917 240.984 C 164.586 235.399,158.595 223.467,158.604 206.500 C 158.613 190.259,163.657 178.574,174.532 169.607 C 175.604 168.723,176.523 168.000,176.574 168.000 C 176.626 168.000,177.474 167.466,178.459 166.813 C 182.117 164.389,191.475 160.000,192.986 160.000 C 193.139 160.000,193.973 159.779,194.840 159.509 C 199.957 157.915,207.485 156.345,211.667 156.000 C 212.721 155.913,214.596 155.732,215.833 155.598 C 221.057 155.035,226.437 154.731,231.891 154.692 L 235.365 154.667 235.285 169.625 " stroke="none" fill="#040404" fill-rule="evenodd"></path><path id="path2" d="" stroke="none" fill="#c0a004" fill-rule="evenodd"></path><path id="path3" d="" stroke="none" fill="#405404" fill-rule="evenodd"></path><path id="path4" d="" stroke="none" fill="#440404" fill-rule="evenodd"></path></g></svg>