<svg id="svg" version="1.1" xmlns="http://www.w3.org/2000/svg" xmlns:xlink="http://www.w3.org/1999/xlink" width="400" height="246.9982847341338" viewBox="0, 0, 400,246.9982847341338"><g id="svgg"><path id="path0" d="M194.812 37.327 C 193.860 37.434,192.005 37.629,190.689 37.760 C 189.373 37.892,188.167 38.079,188.008 38.177 C 187.850 38.275,187.093 38.447,186.325 38.560 C 184.158 38.878,179.869 39.976,179.506 40.306 C 179.377 40.423,179.075 40.519,178.835 40.519 C 178.595 40.519,178.033 40.674,177.587 40.864 C 177.141 41.055,176.275 41.404,175.664 41.641 C 168.544 44.402,162.287 48.905,158.172 54.231 C 157.542 55.046,156.940 55.750,156.834 55.796 C 156.727 55.841,156.640 55.972,156.640 56.087 C 156.640 56.202,156.213 56.943,155.692 57.734 C 154.284 59.869,152.425 63.869,151.692 66.337 C 151.571 66.745,151.291 67.690,151.069 68.437 C 149.294 74.431,150.077 76.448,154.416 77.057 C 156.971 77.415,160.704 77.820,163.877 78.082 C 165.344 78.203,166.956 78.417,167.460 78.557 C 167.963 78.697,169.209 78.817,170.229 78.823 C 171.248 78.830,172.582 78.951,173.193 79.092 C 175.456 79.614,175.992 79.603,177.143 79.013 C 178.380 78.377,179.596 76.808,179.609 75.832 C 179.626 74.496,181.617 69.659,182.535 68.723 C 182.764 68.489,183.267 67.880,183.651 67.371 C 184.443 66.319,187.401 64.064,188.882 63.382 C 189.426 63.132,190.165 62.777,190.526 62.594 C 190.887 62.411,191.448 62.261,191.774 62.261 C 192.099 62.261,192.471 62.155,192.600 62.026 C 193.830 60.796,204.260 61.392,205.670 62.772 C 205.799 62.898,206.055 63.002,206.238 63.002 C 207.844 63.002,212.309 67.561,212.862 69.767 C 212.952 70.125,213.125 70.480,213.245 70.554 C 213.366 70.629,213.467 70.934,213.469 71.231 C 213.471 71.529,213.648 72.273,213.862 72.884 C 214.175 73.777,214.260 75.288,214.291 80.538 L 214.330 87.080 213.635 87.415 C 213.253 87.599,211.475 87.845,209.682 87.960 C 206.521 88.164,203.702 88.454,199.876 88.971 C 198.857 89.108,197.106 89.325,195.985 89.453 C 191.490 89.965,190.080 90.166,189.254 90.414 C 188.780 90.557,187.981 90.673,187.479 90.673 C 186.977 90.673,186.254 90.801,185.872 90.958 C 185.489 91.115,184.620 91.331,183.941 91.440 C 182.724 91.634,180.341 92.191,179.617 92.450 C 179.249 92.582,177.933 92.937,176.035 93.417 C 175.491 93.554,174.941 93.771,174.812 93.899 C 174.683 94.027,174.349 94.136,174.070 94.140 C 173.792 94.144,173.348 94.311,173.084 94.511 C 172.821 94.710,172.452 94.873,172.266 94.873 C 171.945 94.873,166.442 97.509,165.421 98.151 C 160.653 101.155,155.764 105.681,153.245 109.424 C 151.689 111.734,151.646 111.809,150.481 114.145 C 150.041 115.028,149.523 116.065,149.331 116.450 C 149.138 116.835,148.981 117.294,148.981 117.472 C 148.981 117.649,148.815 118.112,148.612 118.502 C 148.409 118.891,148.242 119.405,148.241 119.645 C 148.240 119.885,148.133 120.274,148.003 120.510 C 147.766 120.939,147.316 122.754,147.102 124.151 C 147.039 124.558,146.815 125.893,146.604 127.116 C 145.884 131.288,146.394 140.151,147.614 144.657 C 147.834 145.473,148.122 146.560,148.254 147.074 C 148.385 147.589,148.591 148.200,148.712 148.433 C 148.832 148.667,149.099 149.302,149.305 149.846 C 149.926 151.482,149.954 151.544,150.496 152.440 C 150.784 152.915,151.202 153.638,151.424 154.046 C 152.848 156.656,156.987 161.176,159.358 162.710 C 159.969 163.106,160.525 163.486,160.593 163.555 C 160.948 163.917,164.336 165.644,166.152 166.388 C 166.695 166.611,167.333 166.899,167.569 167.029 C 167.805 167.158,168.250 167.264,168.557 167.265 C 168.865 167.266,169.435 167.433,169.824 167.636 C 170.214 167.839,170.895 168.005,171.338 168.005 C 171.780 168.005,172.629 168.185,173.224 168.405 C 174.564 168.902,188.999 168.974,190.488 168.492 C 190.964 168.338,192.020 168.119,192.835 168.005 C 194.471 167.776,196.307 167.324,196.970 166.988 C 197.206 166.868,197.578 166.770,197.797 166.770 C 198.165 166.770,198.598 166.607,200.803 165.640 C 202.727 164.795,203.588 164.344,205.682 163.082 C 208.036 161.663,211.039 159.517,212.477 158.225 C 212.952 157.798,214.064 156.801,214.947 156.010 C 215.831 155.218,216.983 154.147,217.509 153.629 C 218.710 152.445,219.205 152.442,219.919 153.613 C 222.622 158.051,227.857 164.128,231.526 167.088 C 233.546 168.717,236.692 168.362,238.666 166.282 C 238.734 166.210,239.619 165.429,240.633 164.546 C 242.497 162.921,242.650 162.787,244.143 161.458 C 244.601 161.050,246.141 159.722,247.565 158.507 C 248.989 157.292,250.266 156.174,250.401 156.022 C 250.537 155.870,251.260 155.250,252.007 154.642 C 257.891 149.862,257.943 149.416,253.350 143.062 C 252.118 141.357,251.032 139.796,250.938 139.592 C 250.843 139.389,250.430 138.666,250.021 137.986 C 249.611 137.307,249.165 136.473,249.031 136.133 C 248.733 135.384,248.496 134.818,247.965 133.593 C 247.742 133.078,247.559 132.411,247.557 132.110 C 247.555 131.809,247.364 131.062,247.133 130.451 C 246.751 129.438,246.698 126.746,246.540 100.062 C 246.444 83.959,246.300 70.340,246.219 69.796 C 246.137 69.253,245.954 68.030,245.811 67.078 C 245.237 63.260,244.380 60.451,242.757 57.072 C 240.451 52.272,234.973 46.219,231.501 44.635 C 231.297 44.542,230.797 44.252,230.389 43.990 C 228.499 42.777,224.229 40.902,221.618 40.139 C 220.871 39.921,220.066 39.639,219.830 39.513 C 219.594 39.387,219.205 39.284,218.966 39.285 C 218.726 39.285,218.030 39.128,217.418 38.935 C 215.858 38.442,213.658 38.018,211.489 37.792 C 210.469 37.686,208.691 37.479,207.536 37.331 C 205.183 37.032,197.462 37.029,194.812 37.327 M214.215 105.878 C 215.108 106.954,214.207 124.394,213.073 127.980 C 212.880 128.592,212.722 129.288,212.723 129.528 C 212.723 129.767,212.618 130.157,212.489 130.392 C 212.360 130.628,212.070 131.266,211.844 131.810 C 209.647 137.115,206.239 141.332,202.224 143.715 C 201.192 144.327,199.643 145.028,199.322 145.028 C 199.138 145.028,198.881 145.121,198.752 145.235 C 198.623 145.349,197.448 145.646,196.140 145.895 C 193.138 146.467,190.884 146.123,187.523 144.578 C 185.620 143.704,182.952 141.179,182.254 139.592 C 182.164 139.389,181.988 139.055,181.863 138.851 C 180.168 136.098,179.209 129.929,179.866 126.004 C 180.036 124.985,180.255 123.650,180.352 123.039 C 180.448 122.427,180.672 121.594,180.848 121.186 C 181.025 120.778,181.326 120.056,181.518 119.580 C 182.499 117.152,184.490 114.502,186.812 112.535 C 187.739 111.749,190.898 109.697,191.181 109.697 C 191.321 109.697,191.751 109.537,192.136 109.342 C 193.291 108.755,194.622 108.215,194.914 108.215 C 195.065 108.215,195.382 108.117,195.618 107.997 C 196.205 107.698,198.008 107.235,199.554 106.986 C 200.259 106.872,200.961 106.702,201.112 106.609 C 201.263 106.515,202.520 106.330,203.905 106.197 C 212.369 105.384,213.769 105.340,214.215 105.878 " stroke="none" fill="#050505" fill-rule="evenodd"></path><path id="path1" d="M0.000 123.533 L 0.000 247.066 200.000 247.066 L 400.000 247.066 400.000 123.533 L 400.000 0.000 200.000 0.000 L 0.000 0.000 0.000 123.533 M206.544 36.695 C 209.293 36.902,211.746 37.180,211.994 37.313 C 212.241 37.445,212.956 37.554,213.580 37.554 C 214.205 37.554,215.115 37.721,215.603 37.925 C 216.091 38.128,216.805 38.295,217.190 38.295 C 217.574 38.295,218.144 38.400,218.457 38.527 C 218.769 38.654,219.858 39.001,220.877 39.298 C 221.896 39.595,222.836 39.935,222.965 40.055 C 223.094 40.174,223.434 40.272,223.721 40.272 C 224.007 40.272,224.457 40.435,224.721 40.635 C 224.985 40.834,225.368 41.001,225.571 41.005 C 225.911 41.012,228.991 42.456,229.277 42.742 C 229.345 42.810,229.846 43.085,230.389 43.353 C 235.996 46.116,243.207 54.433,244.482 59.607 C 244.575 59.982,244.749 60.350,244.870 60.425 C 244.991 60.499,245.090 60.818,245.090 61.133 C 245.090 61.448,245.256 62.105,245.460 62.593 C 245.664 63.081,245.831 63.825,245.831 64.245 C 245.831 64.666,245.943 65.221,246.080 65.477 C 246.784 66.792,246.904 70.935,247.055 99.197 C 247.174 121.290,247.285 128.453,247.527 129.586 C 247.947 131.548,248.533 133.612,248.931 134.527 C 249.970 136.919,251.057 138.952,251.641 139.597 C 251.843 139.820,252.007 140.082,252.007 140.180 C 252.007 140.279,252.883 141.549,253.954 143.002 C 257.973 148.458,258.055 150.213,254.441 153.305 C 253.487 154.120,252.463 155.009,252.163 155.281 C 251.864 155.553,251.123 156.164,250.516 156.640 C 249.910 157.116,249.191 157.732,248.919 158.010 C 248.647 158.288,247.258 159.510,245.831 160.727 C 244.404 161.943,243.181 163.004,243.113 163.085 C 243.045 163.165,242.156 163.933,241.137 164.792 C 240.117 165.650,239.172 166.479,239.036 166.633 C 236.980 168.966,233.380 169.453,231.424 167.662 C 231.110 167.375,230.358 166.737,229.752 166.244 C 228.310 165.071,225.987 162.741,224.862 161.339 C 224.369 160.725,223.907 160.167,223.835 160.099 C 223.487 159.767,222.112 157.908,222.112 157.767 C 222.112 157.679,221.997 157.473,221.856 157.309 C 221.191 156.535,219.395 153.905,219.395 153.705 C 219.395 153.060,218.565 153.271,217.721 154.130 C 217.215 154.647,216.133 155.661,215.318 156.384 C 214.503 157.108,213.442 158.056,212.961 158.491 C 211.707 159.624,207.366 162.817,207.078 162.817 C 206.945 162.817,206.798 162.904,206.753 163.012 C 206.506 163.598,199.658 167.017,198.731 167.017 C 198.542 167.017,198.194 167.121,197.958 167.249 C 195.215 168.736,182.968 170.098,177.764 169.494 C 176.405 169.337,174.737 169.155,174.058 169.091 C 172.331 168.927,167.340 167.630,166.905 167.232 C 166.776 167.114,166.504 167.017,166.300 167.017 C 165.866 167.017,161.249 164.756,161.128 164.484 C 161.083 164.382,160.937 164.299,160.805 164.299 C 160.030 164.299,155.332 160.217,153.552 157.996 C 153.008 157.318,152.500 156.708,152.422 156.640 C 152.344 156.572,152.206 156.350,152.114 156.146 C 151.883 155.628,151.360 154.811,151.164 154.662 C 150.841 154.415,148.734 150.195,148.726 149.778 C 148.722 149.543,148.555 149.136,148.355 148.872 C 148.156 148.608,147.993 148.204,147.993 147.974 C 147.993 147.743,147.827 147.236,147.624 146.847 C 147.421 146.458,147.254 145.852,147.253 145.501 C 147.252 145.150,147.168 144.780,147.066 144.678 C 145.600 143.212,145.576 124.230,147.038 121.927 C 147.124 121.791,147.272 121.208,147.368 120.631 C 147.463 120.055,147.643 119.520,147.767 119.443 C 147.891 119.366,147.993 119.092,147.993 118.833 C 147.993 118.573,148.150 117.996,148.343 117.550 C 148.535 117.104,148.877 116.294,149.102 115.750 C 149.775 114.127,150.328 113.038,150.525 112.950 C 150.627 112.905,150.710 112.718,150.710 112.536 C 150.710 112.353,150.851 112.056,151.022 111.877 C 151.193 111.697,151.456 111.272,151.607 110.933 C 152.472 108.972,157.090 103.649,159.857 101.421 C 161.793 99.862,162.544 99.321,162.770 99.321 C 162.909 99.321,163.060 99.232,163.105 99.123 C 163.466 98.256,172.403 93.887,175.299 93.161 C 175.710 93.058,176.286 92.846,176.580 92.688 C 176.874 92.531,177.381 92.403,177.707 92.403 C 178.033 92.403,178.383 92.319,178.484 92.218 C 178.704 91.998,180.722 91.470,182.458 91.177 C 183.138 91.062,184.007 90.846,184.389 90.697 C 184.772 90.548,185.529 90.426,186.073 90.426 C 186.617 90.426,187.292 90.303,187.575 90.152 C 187.857 90.001,188.933 89.781,189.967 89.664 C 191.001 89.547,192.681 89.331,193.700 89.184 C 199.823 88.301,202.800 87.950,206.177 87.712 C 207.536 87.617,209.842 87.388,211.303 87.203 L 213.959 86.867 213.959 81.410 C 213.959 77.357,213.864 75.587,213.589 74.530 C 213.385 73.748,213.214 72.807,213.209 72.440 C 213.204 72.073,213.042 71.495,212.847 71.155 C 212.653 70.815,212.490 70.287,212.486 69.981 C 212.481 69.676,212.368 69.426,212.234 69.426 C 212.101 69.426,211.922 69.148,211.837 68.808 C 211.752 68.468,211.583 68.190,211.462 68.190 C 211.341 68.190,211.242 68.037,211.242 67.850 C 211.242 67.292,207.936 64.345,206.638 63.746 C 205.977 63.440,205.245 63.094,205.011 62.976 C 203.386 62.153,195.861 61.678,193.823 62.269 C 189.910 63.404,188.469 64.030,186.535 65.439 C 185.409 66.258,183.323 68.366,183.323 68.684 C 183.323 68.820,183.227 68.931,183.110 68.931 C 182.993 68.931,182.633 69.487,182.310 70.167 C 181.988 70.846,181.639 71.402,181.535 71.402 C 181.431 71.402,181.347 71.565,181.347 71.764 C 181.347 71.964,181.193 72.492,181.004 72.938 C 180.816 73.384,180.533 74.305,180.375 74.985 C 179.330 79.477,176.913 80.600,170.806 79.432 C 169.741 79.228,168.147 79.061,167.264 79.060 C 166.380 79.059,165.269 78.953,164.793 78.825 C 164.317 78.696,162.539 78.469,160.840 78.321 C 152.429 77.584,152.375 77.573,150.951 76.289 C 149.772 75.225,149.423 74.423,149.539 73.046 C 149.685 71.325,150.204 68.861,150.483 68.573 C 150.608 68.444,150.711 68.055,150.712 67.708 C 150.713 67.362,150.879 66.760,151.082 66.371 C 151.285 65.982,151.452 65.523,151.452 65.351 C 151.452 64.276,155.489 56.486,156.639 55.343 C 156.708 55.275,157.036 54.830,157.370 54.355 C 159.295 51.609,162.834 48.337,166.991 45.460 C 168.330 44.533,172.187 42.530,174.799 41.404 C 175.207 41.228,175.961 40.902,176.475 40.678 C 176.990 40.455,177.561 40.272,177.744 40.272 C 177.928 40.272,178.397 40.106,178.786 39.903 C 179.175 39.700,179.690 39.533,179.929 39.532 C 180.169 39.531,180.558 39.432,180.794 39.313 C 181.397 39.006,183.223 38.537,184.682 38.313 C 185.361 38.209,186.230 37.995,186.613 37.839 C 186.995 37.682,187.785 37.554,188.367 37.554 C 188.949 37.554,189.775 37.433,190.201 37.284 C 190.627 37.135,193.117 36.873,195.735 36.701 C 198.352 36.529,200.731 36.372,201.020 36.353 C 201.309 36.334,203.795 36.488,206.544 36.695 M210.747 106.238 C 210.544 106.370,209.098 106.484,207.536 106.491 C 205.948 106.498,204.040 106.661,203.212 106.861 C 202.397 107.058,201.326 107.221,200.833 107.223 C 200.340 107.225,199.538 107.393,199.050 107.597 C 198.562 107.801,197.832 107.968,197.428 107.968 C 197.024 107.968,196.633 108.066,196.558 108.187 C 196.484 108.307,196.019 108.482,195.525 108.574 C 195.031 108.667,194.446 108.839,194.225 108.957 C 193.259 109.472,192.118 109.944,191.839 109.944 C 191.673 109.944,191.398 110.111,191.229 110.315 C 191.060 110.519,190.722 110.686,190.478 110.686 C 190.234 110.686,189.998 110.769,189.953 110.871 C 189.907 110.973,189.206 111.501,188.394 112.044 C 186.370 113.399,183.323 116.563,183.323 117.310 C 183.323 117.449,183.240 117.599,183.138 117.645 C 182.776 117.805,181.645 120.427,181.025 122.545 C 180.090 125.736,180.074 133.001,180.997 135.059 C 181.189 135.487,181.347 136.017,181.347 136.236 C 181.347 136.455,181.451 136.827,181.578 137.063 C 181.705 137.299,182.067 138.044,182.381 138.719 C 183.539 141.205,187.763 144.781,189.542 144.781 C 189.736 144.781,190.026 144.912,190.186 145.072 C 190.530 145.416,197.137 145.470,197.680 145.134 C 197.869 145.017,198.691 144.685,199.506 144.398 C 203.801 142.884,208.589 137.982,210.837 132.798 C 211.073 132.254,211.357 131.639,211.469 131.431 C 211.581 131.223,211.757 130.671,211.859 130.204 C 211.962 129.737,212.130 129.185,212.232 128.977 C 212.589 128.252,213.023 126.364,213.228 124.645 C 213.342 123.694,213.545 122.304,213.679 121.557 C 213.943 120.086,214.055 107.024,213.809 106.382 C 213.637 105.934,211.382 105.828,210.747 106.238 M276.343 169.362 C 281.293 170.237,282.037 170.949,281.987 174.766 C 281.872 183.446,276.744 194.824,270.957 199.238 C 269.238 200.549,267.601 199.517,268.536 197.711 C 269.041 196.736,270.290 193.613,270.290 193.326 C 270.290 193.155,270.456 192.697,270.659 192.307 C 270.862 191.918,271.029 191.412,271.030 191.182 C 271.031 190.952,271.130 190.703,271.251 190.629 C 271.371 190.554,271.545 190.089,271.638 189.596 C 271.731 189.102,271.896 188.517,272.006 188.296 C 272.116 188.075,272.379 187.282,272.591 186.535 C 274.542 179.655,274.253 177.203,271.375 176.191 C 270.056 175.728,262.193 175.541,259.172 175.900 C 251.670 176.794,250.525 176.774,250.525 175.752 C 250.525 174.526,251.017 174.055,254.074 172.357 C 257.145 170.650,261.941 169.407,267.449 168.889 C 269.169 168.727,274.291 169.000,276.343 169.362 M122.152 171.539 C 125.022 173.685,130.536 177.209,134.404 179.368 C 135.559 180.013,136.893 180.759,137.369 181.027 C 138.409 181.612,143.718 184.277,145.275 184.995 C 148.871 186.655,152.858 188.298,155.899 189.375 C 156.918 189.736,158.141 190.177,158.616 190.355 C 160.777 191.167,165.064 192.423,170.352 193.793 C 181.876 196.780,199.136 198.386,209.265 197.414 C 210.964 197.251,213.465 197.018,214.824 196.896 C 218.516 196.566,223.711 195.735,227.918 194.802 C 228.870 194.592,230.093 194.327,230.636 194.215 C 231.627 194.011,236.229 192.757,238.542 192.061 C 239.222 191.856,240.111 191.595,240.519 191.481 C 241.262 191.272,242.241 190.940,243.854 190.348 C 244.330 190.173,245.553 189.739,246.572 189.381 C 247.591 189.024,248.758 188.582,249.166 188.398 C 249.574 188.214,251.186 187.536,252.749 186.891 C 254.311 186.246,255.757 185.628,255.960 185.518 C 262.876 181.767,265.604 180.899,266.779 182.073 C 269.291 184.586,267.438 187.199,258.432 193.838 C 256.602 195.187,250.489 199.135,250.230 199.135 C 250.159 199.135,249.169 199.671,248.028 200.325 C 246.887 200.980,245.398 201.773,244.719 202.088 C 244.040 202.403,243.095 202.856,242.619 203.096 C 241.272 203.774,237.020 205.548,234.836 206.342 C 230.066 208.077,226.726 209.094,222.854 209.992 C 222.378 210.102,221.489 210.312,220.877 210.459 C 217.489 211.270,213.774 211.875,208.400 212.492 C 206.807 212.675,203.211 212.733,198.271 212.657 C 191.029 212.545,189.676 212.441,183.447 211.518 C 181.897 211.289,178.627 210.634,177.146 210.256 C 176.671 210.135,175.559 209.854,174.676 209.632 C 166.770 207.643,156.231 203.283,148.991 199.005 C 147.733 198.261,146.669 197.653,146.626 197.653 C 146.099 197.653,136.931 191.056,133.292 188.057 C 127.272 183.098,118.744 174.524,118.072 172.756 C 117.070 170.119,119.347 169.440,122.152 171.539 " stroke="none" fill="#fbfbfb" fill-rule="evenodd"></path><path id="path2" d="M264.978 169.285 C 262.534 169.647,259.894 170.263,258.061 170.900 C 257.109 171.231,256.109 171.567,255.837 171.647 C 255.565 171.727,254.954 172.028,254.478 172.315 C 254.002 172.602,253.185 173.056,252.662 173.324 C 248.363 175.526,250.446 177.006,256.455 176.017 C 260.582 175.338,269.534 175.401,271.447 176.123 C 273.745 176.991,273.879 177.220,273.838 180.199 C 273.800 182.945,272.970 186.533,271.402 190.735 C 271.224 191.211,270.727 192.545,270.297 193.700 C 269.866 194.855,269.422 196.022,269.310 196.294 C 268.406 198.475,268.355 199.438,269.136 199.587 C 271.961 200.126,278.090 191.392,280.289 183.694 C 280.522 182.878,280.810 181.878,280.930 181.470 C 281.752 178.666,282.099 173.533,281.563 172.129 C 280.974 170.586,279.907 170.129,274.846 169.253 C 273.093 168.949,267.114 168.968,264.978 169.285 M118.506 170.680 C 117.835 171.423,117.992 172.703,118.892 173.816 C 121.640 177.217,128.523 183.952,133.026 187.647 C 133.688 188.190,134.355 188.757,134.508 188.905 C 138.304 192.599,151.384 200.617,159.234 204.064 C 162.304 205.412,162.509 205.495,166.152 206.863 C 167.343 207.310,170.538 208.316,172.576 208.885 C 175.643 209.743,176.575 209.980,178.258 210.335 C 179.209 210.535,180.544 210.822,181.223 210.971 C 183.009 211.364,185.304 211.695,188.264 211.985 C 189.691 212.125,191.804 212.348,192.959 212.480 C 195.714 212.795,203.885 212.788,206.547 212.468 C 207.702 212.329,209.648 212.110,210.871 211.981 C 213.902 211.660,219.855 210.671,221.248 210.258 C 221.655 210.137,222.684 209.864,223.533 209.652 C 226.878 208.814,228.186 208.461,228.660 208.267 C 228.931 208.156,229.988 207.821,231.007 207.523 C 232.026 207.225,232.965 206.884,233.095 206.764 C 233.224 206.645,233.563 206.547,233.848 206.547 C 234.133 206.547,234.473 206.454,234.602 206.341 C 234.731 206.228,235.392 205.936,236.072 205.692 C 237.342 205.237,237.729 205.076,240.272 203.952 C 247.756 200.643,252.849 197.698,259.127 193.049 C 266.953 187.254,268.688 185.008,267.151 182.663 C 266.046 180.976,265.487 181.043,260.531 183.451 C 255.434 185.927,252.667 187.171,249.537 188.392 C 248.925 188.630,248.091 188.966,247.684 189.138 C 246.622 189.587,241.976 191.201,240.519 191.628 C 239.839 191.828,238.950 192.093,238.542 192.217 C 235.261 193.222,232.712 193.911,231.254 194.187 C 230.642 194.304,229.829 194.519,229.447 194.667 C 229.064 194.814,228.417 194.935,228.010 194.935 C 227.602 194.935,227.055 195.049,226.795 195.188 C 226.535 195.328,225.569 195.552,224.650 195.687 C 223.730 195.822,221.977 196.095,220.754 196.294 C 219.531 196.494,217.418 196.771,216.059 196.911 C 214.700 197.050,212.775 197.274,211.780 197.409 C 209.403 197.729,193.573 197.715,191.353 197.390 C 190.401 197.251,188.456 197.034,187.029 196.909 C 185.602 196.783,183.323 196.503,181.964 196.286 C 180.605 196.069,178.938 195.803,178.258 195.694 C 176.829 195.465,174.736 195.014,173.317 194.631 C 172.773 194.484,171.884 194.280,171.340 194.178 C 170.206 193.964,165.713 192.805,164.793 192.488 C 164.453 192.371,163.508 192.079,162.693 191.838 C 161.878 191.597,160.860 191.250,160.432 191.067 C 160.004 190.885,159.427 190.735,159.150 190.735 C 158.872 190.735,158.577 190.624,158.493 190.488 C 158.409 190.352,158.152 190.240,157.922 190.239 C 157.693 190.239,157.186 190.072,156.797 189.869 C 156.408 189.666,155.939 189.500,155.755 189.500 C 155.572 189.500,155.001 189.318,154.486 189.095 C 153.972 188.872,153.329 188.599,153.057 188.487 C 148.806 186.744,146.396 185.733,146.060 185.551 C 145.832 185.428,143.922 184.485,141.816 183.454 C 139.710 182.423,137.431 181.267,136.751 180.885 C 133.666 179.148,130.501 177.304,129.710 176.784 C 129.234 176.471,127.680 175.460,126.256 174.537 C 124.832 173.615,122.842 172.268,121.834 171.544 C 119.881 170.143,119.162 169.956,118.506 170.680 " stroke="none" fill="#fc9c1e" fill-rule="evenodd"></path><path id="path3" d="M198.394 36.556 C 196.768 36.684,197.432 36.731,201.338 36.767 C 204.113 36.792,206.336 36.770,206.280 36.718 C 206.059 36.516,200.384 36.399,198.394 36.556 M191.143 37.072 C 190.484 37.182,189.873 37.352,189.784 37.448 C 189.696 37.544,190.124 37.539,190.735 37.436 C 191.347 37.333,192.847 37.168,194.070 37.068 L 196.294 36.887 194.317 36.879 C 193.230 36.875,191.802 36.961,191.143 37.072 M208.400 37.044 C 209.487 37.155,210.821 37.322,211.365 37.414 C 212.132 37.545,212.258 37.522,211.925 37.311 C 211.689 37.162,210.355 36.995,208.960 36.941 C 206.453 36.844,206.447 36.845,208.400 37.044 M186.411 37.938 L 185.670 38.300 186.535 38.144 C 187.011 38.058,187.844 37.904,188.388 37.802 L 189.376 37.616 188.264 37.596 C 187.653 37.585,186.819 37.739,186.411 37.938 M213.836 37.795 C 214.379 37.893,215.158 38.047,215.565 38.136 L 216.306 38.298 215.565 37.937 C 215.158 37.739,214.379 37.585,213.836 37.596 L 212.847 37.616 213.836 37.795 M182.952 38.675 C 181.979 39.120,182.655 39.123,184.064 38.679 C 185.033 38.373,185.081 38.329,184.435 38.332 C 184.027 38.334,183.360 38.488,182.952 38.675 M217.912 38.675 C 218.524 38.867,219.747 39.239,220.630 39.502 C 221.513 39.766,222.458 40.063,222.730 40.163 C 223.066 40.286,223.145 40.263,222.977 40.091 C 222.841 39.952,221.896 39.595,220.877 39.298 C 219.858 39.001,218.769 38.654,218.457 38.527 C 218.144 38.400,217.644 38.302,217.345 38.310 C 217.023 38.320,217.255 38.468,217.912 38.675 M180.723 39.293 C 180.619 39.462,180.805 39.493,181.264 39.382 C 182.211 39.155,182.300 39.036,181.526 39.036 C 181.171 39.036,180.810 39.152,180.723 39.293 M178.902 39.799 C 177.926 40.189,178.446 40.277,179.503 39.901 C 180.041 39.709,180.259 39.554,179.988 39.557 C 179.716 39.560,179.227 39.668,178.902 39.799 M176.405 40.692 C 174.635 41.487,174.431 41.592,174.507 41.668 C 174.549 41.710,175.411 41.420,176.421 41.023 C 177.432 40.626,178.036 40.301,177.764 40.302 C 177.492 40.303,176.881 40.478,176.405 40.692 M224.056 40.652 C 225.103 41.107,225.337 41.101,224.721 40.635 C 224.457 40.435,224.013 40.276,223.733 40.281 C 223.358 40.289,223.442 40.386,224.056 40.652 M226.065 41.433 C 226.541 41.658,227.458 42.102,228.104 42.420 C 228.749 42.738,229.273 42.913,229.267 42.808 C 229.255 42.568,226.025 41.011,225.553 41.019 C 225.359 41.022,225.590 41.208,226.065 41.433 M173.084 42.133 C 172.474 42.594,172.875 42.589,173.687 42.125 C 174.046 41.920,174.149 41.771,173.935 41.771 C 173.731 41.770,173.348 41.933,173.084 42.133 M170.766 43.229 C 169.495 43.893,168.705 44.472,169.072 44.472 C 169.170 44.472,169.690 44.194,170.229 43.854 C 170.767 43.515,171.293 43.233,171.397 43.229 C 171.502 43.224,171.803 43.058,172.067 42.858 C 172.801 42.303,172.226 42.467,170.766 43.229 M230.266 43.531 C 237.002 47.683,240.715 51.817,243.927 58.740 C 244.068 59.045,244.232 59.247,244.291 59.189 C 244.633 58.847,241.345 53.122,239.533 50.905 C 237.743 48.714,233.043 44.778,230.598 43.422 C 229.491 42.807,229.230 42.893,230.266 43.531 M167.758 44.915 C 167.418 45.145,167.006 45.445,166.841 45.582 C 166.676 45.719,165.817 46.331,164.932 46.943 C 164.047 47.554,163.264 48.204,163.192 48.387 C 163.120 48.570,163.756 48.176,164.606 47.512 C 165.456 46.848,166.736 45.929,167.449 45.470 C 168.162 45.011,168.746 44.599,168.746 44.554 C 168.746 44.372,168.343 44.520,167.758 44.915 M161.207 50.103 C 159.393 51.858,158.168 53.216,157.370 54.355 C 157.036 54.830,156.708 55.275,156.639 55.343 C 156.467 55.514,155.108 57.525,154.796 58.069 C 153.908 59.620,152.950 61.618,153.048 61.716 C 153.111 61.779,153.303 61.510,153.475 61.119 C 153.953 60.029,156.290 56.202,157.367 54.744 C 158.517 53.187,158.472 53.238,160.958 50.691 C 163.230 48.364,163.386 47.994,161.207 50.103 M244.354 59.666 C 244.358 60.217,245.068 61.876,245.079 61.362 C 245.085 61.072,244.923 60.516,244.720 60.127 C 244.517 59.738,244.352 59.531,244.354 59.666 M196.368 61.951 C 197.495 61.996,199.274 61.996,200.321 61.950 C 201.367 61.904,200.445 61.866,198.271 61.867 C 196.096 61.867,195.240 61.905,196.368 61.951 M152.084 63.607 C 151.710 64.487,151.462 65.350,151.532 65.525 C 151.612 65.725,151.667 65.681,151.679 65.407 C 151.690 65.168,151.804 64.779,151.934 64.543 C 152.470 63.565,152.991 62.235,152.881 62.125 C 152.816 62.061,152.458 62.728,152.084 63.607 M192.959 62.261 C 192.652 62.459,192.673 62.500,193.082 62.500 C 193.354 62.500,193.743 62.392,193.947 62.261 C 194.254 62.062,194.233 62.021,193.823 62.021 C 193.552 62.021,193.162 62.129,192.959 62.261 M202.594 62.261 C 202.798 62.392,203.187 62.494,203.459 62.487 L 203.953 62.473 203.459 62.261 C 202.720 61.943,202.103 61.943,202.594 62.261 M245.198 62.508 C 245.259 62.847,245.415 63.515,245.545 63.990 L 245.780 64.855 245.794 64.114 C 245.802 63.706,245.646 63.039,245.448 62.631 C 245.125 61.967,245.099 61.954,245.198 62.508 M189.870 63.229 C 187.291 64.421,182.386 68.190,183.413 68.190 C 183.521 68.190,184.073 67.703,184.639 67.108 C 186.329 65.334,188.473 64.002,191.229 63.013 C 192.095 62.703,192.364 62.529,191.970 62.535 C 191.631 62.540,190.686 62.853,189.870 63.229 M204.661 62.880 C 205.569 63.353,206.044 63.357,205.421 62.886 C 205.157 62.687,204.719 62.521,204.447 62.517 C 204.052 62.512,204.095 62.585,204.661 62.880 M206.438 63.612 C 206.702 63.811,207.029 63.974,207.165 63.974 C 207.301 63.974,207.196 63.811,206.932 63.612 C 206.669 63.412,206.342 63.249,206.206 63.249 C 206.070 63.249,206.174 63.412,206.438 63.612 M207.659 64.158 C 210.585 66.910,211.259 67.477,210.682 66.703 C 210.325 66.224,209.777 65.613,209.464 65.344 C 208.864 64.829,207.234 63.758,207.659 64.158 M245.982 66.090 C 246.081 66.634,246.248 67.634,246.353 68.314 C 246.516 69.373,246.530 69.294,246.449 67.762 C 246.397 66.780,246.230 65.779,246.078 65.539 C 245.862 65.196,245.841 65.315,245.982 66.090 M150.951 66.600 C 150.819 66.949,150.722 67.477,150.736 67.774 C 150.755 68.189,150.805 68.143,150.952 67.573 C 151.057 67.165,151.225 66.637,151.324 66.399 C 151.423 66.161,151.434 65.967,151.348 65.967 C 151.262 65.967,151.084 66.252,150.951 66.600 M211.242 67.929 C 211.242 68.072,211.341 68.190,211.462 68.190 C 211.583 68.190,211.752 68.468,211.837 68.808 C 211.922 69.148,212.093 69.426,212.216 69.426 C 212.338 69.426,212.274 69.094,212.072 68.689 C 211.678 67.900,211.242 67.500,211.242 67.929 M150.346 68.711 C 148.237 74.361,149.950 77.313,155.652 77.859 C 159.742 78.250,161.738 78.344,160.346 78.080 C 159.734 77.964,158.122 77.795,156.763 77.703 C 150.402 77.274,148.462 74.683,150.512 69.356 C 150.658 68.978,150.709 68.601,150.626 68.518 C 150.543 68.435,150.417 68.521,150.346 68.711 M182.642 69.103 C 181.910 70.143,181.307 71.402,181.540 71.402 C 181.653 71.402,181.942 70.957,182.182 70.413 C 182.422 69.870,182.790 69.253,183.000 69.043 C 183.210 68.833,183.325 68.604,183.256 68.535 C 183.187 68.466,182.910 68.721,182.642 69.103 M212.514 70.043 C 212.503 70.315,212.653 70.815,212.847 71.155 C 213.072 71.547,213.204 71.633,213.209 71.390 C 213.214 71.179,213.118 70.901,212.995 70.772 C 212.872 70.643,212.718 70.315,212.653 70.043 L 212.534 69.549 212.514 70.043 M246.760 95.885 C 246.796 110.344,246.857 123.008,246.896 124.027 C 246.935 125.046,246.983 113.650,247.002 98.703 C 247.022 83.755,246.961 71.092,246.867 70.561 C 246.772 70.031,246.725 81.427,246.760 95.885 M180.880 72.418 C 180.699 72.826,180.604 73.213,180.669 73.277 C 180.733 73.342,180.927 73.054,181.099 72.637 C 181.508 71.650,181.308 71.450,180.880 72.418 M213.251 72.637 C 213.245 72.977,213.394 73.811,213.583 74.490 C 213.798 75.264,213.930 75.495,213.938 75.108 C 213.944 74.768,213.795 73.935,213.606 73.255 C 213.391 72.483,213.258 72.251,213.251 72.637 M180.173 74.588 C 179.746 75.979,179.817 76.692,180.261 75.479 C 180.460 74.935,180.591 74.286,180.552 74.036 C 180.510 73.761,180.360 73.978,180.173 74.588 M179.022 77.689 C 177.686 79.650,176.771 79.815,170.599 79.203 C 169.470 79.091,169.501 79.111,170.970 79.430 C 175.462 80.407,177.988 79.831,179.462 77.496 C 180.170 76.372,179.811 76.530,179.022 77.689 M214.063 82.273 C 214.063 84.923,214.099 86.007,214.143 84.682 C 214.188 83.357,214.188 81.189,214.143 79.864 C 214.099 78.539,214.063 79.623,214.063 82.273 M163.311 78.596 C 164.058 78.710,165.448 78.858,166.399 78.926 L 168.128 79.050 166.028 78.695 C 164.873 78.500,163.484 78.352,162.940 78.365 C 162.035 78.387,162.067 78.407,163.311 78.596 M210.382 87.243 C 209.570 87.361,208.792 87.505,208.653 87.564 C 208.107 87.792,210.229 87.653,211.983 87.346 C 214.133 86.968,212.838 86.885,210.382 87.243 M203.777 87.844 C 203.702 87.918,202.933 88.071,202.068 88.183 L 200.494 88.387 201.729 88.408 C 202.409 88.419,203.910 88.278,205.065 88.093 L 207.165 87.757 205.538 87.733 C 204.644 87.719,203.851 87.769,203.777 87.844 M197.159 88.710 C 196.769 88.843,197.178 88.869,198.271 88.778 C 199.222 88.700,200.046 88.594,200.103 88.543 C 200.306 88.359,197.763 88.503,197.159 88.710 M192.894 89.181 C 192.383 89.280,191.883 89.450,191.782 89.558 C 191.682 89.666,192.044 89.670,192.588 89.565 C 193.132 89.461,194.243 89.296,195.059 89.198 L 196.541 89.019 195.182 89.010 C 194.435 89.005,193.405 89.082,192.894 89.181 M188.052 89.968 C 186.779 90.335,187.318 90.504,188.801 90.204 C 189.525 90.057,190.340 89.893,190.611 89.840 C 190.883 89.786,190.605 89.739,189.994 89.736 C 189.382 89.732,188.508 89.837,188.052 89.968 M184.064 90.819 L 183.200 91.174 184.064 91.019 C 184.540 90.934,185.318 90.779,185.794 90.674 L 186.658 90.483 185.794 90.473 C 185.318 90.468,184.540 90.624,184.064 90.819 M180.605 91.554 C 179.414 92.004,180.408 92.002,181.841 91.551 C 182.794 91.250,182.847 91.202,182.211 91.213 C 181.804 91.221,181.081 91.374,180.605 91.554 M178.505 92.156 C 178.311 92.470,178.883 92.470,179.370 92.156 C 179.671 91.961,179.639 91.915,179.199 91.912 C 178.902 91.910,178.589 92.020,178.505 92.156 M176.405 92.773 C 175.607 93.230,176.014 93.233,177.270 92.780 C 178.053 92.498,178.130 92.424,177.641 92.422 C 177.301 92.421,176.745 92.579,176.405 92.773 M174.182 93.515 C 173.392 93.966,173.561 93.968,174.799 93.522 C 175.343 93.326,175.565 93.165,175.293 93.164 C 175.022 93.162,174.521 93.320,174.182 93.515 M172.205 94.256 C 171.848 94.460,171.744 94.609,171.958 94.609 C 172.162 94.609,172.607 94.450,172.946 94.256 C 173.303 94.052,173.407 93.903,173.193 93.903 C 172.989 93.903,172.545 94.062,172.205 94.256 M170.723 94.861 C 170.519 94.974,169.703 95.365,168.909 95.730 C 168.115 96.095,167.517 96.445,167.580 96.508 C 167.643 96.571,168.226 96.340,168.875 95.995 C 169.524 95.650,170.177 95.364,170.327 95.360 C 170.477 95.355,170.815 95.189,171.079 94.989 C 171.588 94.604,171.345 94.516,170.723 94.861 M165.164 97.710 C 164.212 98.299,163.300 98.902,163.136 99.051 C 162.972 99.199,162.765 99.321,162.677 99.321 C 162.534 99.321,162.107 99.637,159.853 101.414 C 158.296 102.640,154.406 106.798,153.131 108.597 C 151.645 110.694,150.825 112.297,152.156 110.502 C 152.584 109.926,152.934 109.386,152.934 109.303 C 152.934 107.855,161.366 100.217,166.057 97.414 C 166.789 96.977,167.276 96.624,167.140 96.629 C 167.004 96.634,166.115 97.120,165.164 97.710 M208.277 106.090 L 205.435 106.362 207.844 106.433 C 209.181 106.472,210.465 106.390,210.731 106.247 C 211.138 106.029,213.614 105.871,213.763 106.053 C 213.790 106.087,213.878 108.783,213.957 112.044 L 214.100 117.974 214.153 112.337 C 214.223 104.901,214.759 105.470,208.277 106.090 M201.606 106.856 C 200.449 107.124,200.376 107.172,201.112 107.175 C 201.587 107.177,202.532 107.036,203.212 106.862 C 204.906 106.426,203.480 106.421,201.606 106.856 M197.900 107.610 C 196.938 107.885,196.888 107.929,197.529 107.937 C 197.937 107.942,198.604 107.793,199.012 107.606 C 199.932 107.185,199.377 107.187,197.900 107.610 M194.935 108.492 C 194.188 108.761,193.354 109.049,193.082 109.131 C 192.451 109.321,191.529 109.944,191.877 109.944 C 192.124 109.944,193.305 109.448,194.225 108.957 C 194.446 108.839,195.031 108.667,195.525 108.574 C 196.019 108.482,196.484 108.307,196.558 108.187 C 196.746 107.883,196.496 107.930,194.935 108.492 M190.626 110.323 C 190.242 110.613,190.224 110.686,190.534 110.686 C 190.747 110.686,191.060 110.519,191.229 110.315 C 191.620 109.844,191.253 109.848,190.626 110.323 M188.263 111.799 C 186.570 112.933,185.111 114.358,183.967 115.998 L 183.276 116.986 183.952 116.178 C 185.791 113.982,187.084 112.870,189.973 110.999 C 190.030 110.963,190.029 110.886,189.972 110.829 C 189.915 110.771,189.146 111.208,188.263 111.799 M149.932 113.842 C 149.708 114.348,149.332 115.183,149.097 115.698 C 148.862 116.212,148.723 116.687,148.790 116.753 C 148.856 116.820,149.144 116.343,149.430 115.695 C 149.717 115.046,150.116 114.154,150.319 113.712 C 150.521 113.271,150.608 112.912,150.513 112.916 C 150.418 112.919,150.156 113.336,149.932 113.842 M148.262 117.795 C 148.087 118.220,148.001 118.711,148.072 118.888 C 148.145 119.070,148.209 118.989,148.220 118.703 C 148.231 118.424,148.363 118.073,148.515 117.922 C 148.666 117.770,148.743 117.507,148.686 117.335 C 148.629 117.164,148.438 117.371,148.262 117.795 M182.900 117.412 C 182.454 117.983,181.308 120.612,181.445 120.749 C 181.519 120.823,181.697 120.563,181.840 120.170 C 182.242 119.069,182.926 117.746,183.192 117.555 C 183.324 117.461,183.368 117.319,183.289 117.240 C 183.211 117.162,183.036 117.239,182.900 117.412 M147.656 119.525 C 147.579 119.649,147.442 120.215,147.351 120.783 C 147.261 121.350,147.090 121.874,146.972 121.947 C 146.854 122.020,146.757 122.370,146.757 122.724 C 146.757 123.677,146.915 123.363,147.465 121.310 C 147.925 119.595,147.991 118.984,147.656 119.525 M213.637 121.680 C 213.533 122.359,213.401 123.527,213.343 124.274 L 213.238 125.633 213.602 123.904 C 213.803 122.952,213.935 121.785,213.896 121.309 C 213.831 120.515,213.810 120.545,213.637 121.680 M180.885 122.039 C 180.712 122.615,180.623 123.139,180.687 123.203 C 180.853 123.369,181.405 121.608,181.293 121.271 C 181.241 121.117,181.058 121.462,180.885 122.039 M146.410 124.645 C 146.208 125.777,145.981 128.475,146.119 128.104 C 146.360 127.451,146.809 124.306,146.704 124.002 C 146.639 123.812,146.506 124.101,146.410 124.645 M180.173 126.004 C 179.785 128.636,179.801 130.110,180.242 132.304 L 180.589 134.033 180.469 132.427 C 180.403 131.544,180.282 130.386,180.199 129.854 C 180.115 129.321,180.184 128.154,180.350 127.260 C 180.517 126.365,180.615 125.244,180.568 124.768 C 180.505 124.134,180.399 124.464,180.173 126.004 M212.752 127.016 C 212.601 127.451,212.485 128.040,212.494 128.326 C 212.504 128.611,212.677 128.305,212.880 127.645 C 213.291 126.306,213.184 125.778,212.752 127.016 M247.126 127.486 C 247.119 128.233,247.266 129.401,247.452 130.080 L 247.791 131.316 247.641 130.080 C 247.559 129.401,247.413 128.233,247.316 127.486 L 247.139 126.127 247.126 127.486 M212.160 129.137 C 212.094 129.248,211.958 129.725,211.857 130.196 C 211.756 130.667,211.583 131.223,211.473 131.431 C 210.949 132.424,210.507 133.505,210.591 133.589 C 210.714 133.712,211.651 131.705,212.131 130.291 C 212.468 129.300,212.486 128.586,212.160 129.137 M145.863 133.045 C 145.864 134.676,145.904 135.311,145.952 134.456 C 146.001 133.601,146.000 132.267,145.951 131.491 C 145.902 130.715,145.863 131.414,145.863 133.045 M247.821 131.810 C 247.817 131.946,247.975 132.502,248.171 133.045 C 248.367 133.589,248.532 133.852,248.538 133.629 C 248.544 133.407,248.386 132.851,248.188 132.394 C 247.989 131.937,247.824 131.674,247.821 131.810 M209.068 136.021 C 208.369 137.181,207.898 138.068,208.021 137.992 C 208.324 137.805,210.550 134.124,210.431 134.006 C 210.380 133.954,209.766 134.861,209.068 136.021 M248.556 134.198 C 248.537 134.601,249.566 136.681,249.712 136.535 C 249.801 136.445,249.743 136.241,249.582 136.080 C 249.421 135.919,249.290 135.609,249.290 135.390 C 249.290 135.014,248.573 133.849,248.556 134.198 M180.624 134.787 C 180.634 134.916,180.803 135.411,180.998 135.886 L 181.353 136.751 181.222 135.894 C 181.106 135.142,180.573 134.155,180.624 134.787 M181.347 136.963 C 181.347 138.081,184.006 141.807,185.710 143.077 C 187.492 144.406,190.577 145.771,190.117 145.028 C 190.033 144.892,189.798 144.781,189.593 144.781 C 187.450 144.781,182.591 140.323,181.949 137.769 C 181.811 137.218,181.347 136.597,181.347 136.963 M249.784 136.964 C 249.784 137.453,252.699 141.791,255.120 144.904 C 256.022 146.064,256.573 147.471,256.718 148.981 L 256.871 150.587 256.910 149.101 C 256.957 147.295,256.651 146.664,253.954 143.002 C 252.883 141.549,252.007 140.297,252.007 140.221 C 252.007 140.144,251.674 139.622,251.266 139.059 C 250.859 138.496,250.525 137.899,250.525 137.733 C 250.525 137.566,250.358 137.291,250.154 137.122 C 249.951 136.953,249.784 136.881,249.784 136.964 M146.060 139.222 C 146.048 139.901,146.201 141.013,146.401 141.692 L 146.765 142.928 146.600 141.569 C 146.510 140.821,146.356 139.710,146.259 139.098 L 146.082 137.986 146.060 139.222 M205.856 140.060 C 204.012 142.022,201.584 143.672,199.431 144.426 C 197.937 144.949,197.312 145.275,197.800 145.275 C 198.362 145.275,200.723 144.260,202.148 143.406 C 203.599 142.535,208.207 138.337,207.659 138.384 C 207.523 138.395,206.712 139.149,205.856 140.060 M146.782 143.716 C 146.768 144.150,146.868 144.573,147.004 144.657 C 147.288 144.833,147.288 144.433,147.004 143.545 C 146.815 142.956,146.805 142.963,146.782 143.716 M147.370 145.871 C 147.431 146.403,147.612 146.959,147.773 147.107 C 147.994 147.309,148.019 147.254,147.875 146.881 C 147.770 146.609,147.589 146.053,147.472 145.645 C 147.282 144.981,147.271 145.005,147.370 145.871 M192.156 145.601 C 193.185 145.724,194.709 145.722,195.738 145.596 C 197.366 145.397,197.203 145.377,193.947 145.381 C 190.694 145.385,190.529 145.405,192.156 145.601 M148.021 147.884 C 148.005 148.163,148.156 148.608,148.355 148.872 C 148.555 149.136,148.722 149.235,148.726 149.092 C 148.730 148.949,148.633 148.727,148.511 148.598 C 148.388 148.469,148.234 148.141,148.169 147.869 C 148.053 147.387,148.049 147.387,148.021 147.884 M148.743 149.860 C 148.738 150.140,148.897 150.585,149.097 150.848 C 149.563 151.465,149.569 151.230,149.114 150.183 C 148.848 149.570,148.751 149.485,148.743 149.860 M256.154 151.326 C 255.920 151.638,254.308 153.091,252.571 154.554 C 250.834 156.017,249.302 157.336,249.166 157.486 C 249.030 157.635,248.257 158.312,247.448 158.990 C 246.639 159.668,245.798 160.389,245.580 160.593 C 245.221 160.930,242.560 163.273,241.284 164.377 C 240.999 164.624,240.110 165.402,239.308 166.107 C 238.506 166.811,237.561 167.581,237.208 167.818 C 236.855 168.055,236.666 168.249,236.790 168.250 C 237.027 168.252,238.620 167.105,239.036 166.633 C 239.172 166.479,240.117 165.650,241.137 164.792 C 242.156 163.933,243.045 163.165,243.113 163.085 C 243.181 163.004,244.404 161.943,245.831 160.727 C 247.258 159.510,248.647 158.288,248.919 158.010 C 249.191 157.732,249.910 157.116,250.516 156.640 C 251.123 156.164,251.864 155.553,252.163 155.281 C 252.463 155.009,253.480 154.120,254.425 153.305 C 256.021 151.927,256.846 151.014,256.657 150.834 C 256.614 150.793,256.387 151.014,256.154 151.326 M149.483 151.496 C 149.468 151.821,151.061 154.663,151.258 154.663 C 151.368 154.663,151.178 154.221,150.837 153.680 C 150.496 153.139,150.216 152.605,150.216 152.492 C 150.216 152.241,149.494 151.260,149.483 151.496 M217.171 154.335 C 215.105 156.429,210.604 160.239,208.707 161.500 C 207.776 162.119,207.069 162.679,207.135 162.745 C 207.270 162.881,211.616 159.707,212.961 158.491 C 213.442 158.056,214.503 157.108,215.318 156.384 C 216.133 155.661,217.215 154.647,217.721 154.130 C 218.345 153.495,218.784 153.238,219.080 153.333 C 219.448 153.452,219.459 153.432,219.148 153.208 C 218.630 152.835,218.678 152.808,217.171 154.335 M219.395 153.803 C 219.395 153.873,219.895 154.618,220.506 155.458 C 221.118 156.298,221.618 157.075,221.618 157.183 C 221.618 157.292,221.727 157.381,221.860 157.381 C 221.993 157.381,221.537 156.547,220.845 155.528 C 219.681 153.812,219.395 153.472,219.395 153.803 M152.198 156.310 C 152.195 156.469,152.276 156.636,152.378 156.681 C 152.480 156.726,153.008 157.318,153.552 157.996 C 155.332 160.217,160.030 164.299,160.805 164.299 C 160.937 164.299,161.083 164.382,161.128 164.484 C 161.283 164.832,166.017 167.062,166.332 166.935 C 166.577 166.837,166.573 166.804,166.318 166.789 C 163.877 166.644,156.323 161.127,153.100 157.134 C 152.606 156.523,152.200 156.152,152.198 156.310 M222.112 157.778 C 222.112 157.911,223.501 159.780,223.835 160.099 C 223.907 160.167,224.369 160.725,224.862 161.339 C 225.987 162.741,228.310 165.071,229.752 166.244 C 230.358 166.737,231.127 167.390,231.460 167.696 C 231.794 168.002,232.187 168.252,232.333 168.252 C 232.479 168.252,232.338 168.069,232.020 167.846 C 230.081 166.488,225.578 161.950,223.658 159.419 C 222.358 157.706,222.112 157.444,222.112 157.778 M205.930 163.365 C 205.085 163.913,200.741 166.022,199.259 166.603 C 198.715 166.817,198.451 166.997,198.672 167.004 C 199.447 167.028,205.468 164.159,206.774 163.144 C 207.213 162.802,206.515 162.985,205.930 163.365 M166.893 167.192 C 167.174 167.473,169.536 168.260,170.028 168.236 C 170.415 168.218,169.416 167.779,168.376 167.511 C 167.968 167.406,167.412 167.236,167.140 167.132 C 166.810 167.006,166.728 167.026,166.893 167.192 M194.935 167.897 C 194.374 168.109,194.244 168.228,194.565 168.234 C 194.836 168.240,195.503 168.084,196.047 167.889 C 196.793 167.620,196.884 167.537,196.418 167.551 C 196.078 167.561,195.411 167.717,194.935 167.897 M171.464 168.623 C 171.939 168.806,172.773 168.955,173.317 168.954 C 174.229 168.952,174.191 168.926,172.823 168.618 C 170.937 168.193,170.353 168.195,171.464 168.623 M192.428 168.371 C 192.362 168.436,191.705 168.590,190.966 168.713 C 189.888 168.891,189.794 168.940,190.488 168.960 C 190.964 168.973,191.909 168.829,192.588 168.640 C 193.441 168.403,193.626 168.289,193.185 168.274 C 192.834 168.262,192.493 168.306,192.428 168.371 M233.176 168.602 C 233.399 168.727,234.035 168.828,234.589 168.828 C 235.144 168.828,235.780 168.727,236.002 168.602 C 236.277 168.449,235.821 168.376,234.589 168.376 C 233.358 168.376,232.902 168.449,233.176 168.602 M269.247 168.927 C 269.828 168.980,270.717 168.979,271.223 168.926 C 271.729 168.873,271.254 168.830,270.167 168.831 C 269.080 168.832,268.666 168.875,269.247 168.927 M175.664 169.284 C 176.765 169.603,186.011 169.598,187.647 169.277 C 188.588 169.092,188.205 169.073,186.041 169.199 C 182.432 169.408,179.562 169.408,176.899 169.198 C 175.290 169.072,175.001 169.091,175.664 169.284 M264.361 169.240 C 263.527 169.416,263.523 169.422,264.237 169.426 C 264.645 169.427,265.312 169.344,265.720 169.240 C 266.745 168.979,265.600 168.979,264.361 169.240 M274.490 169.240 C 274.830 169.349,275.386 169.436,275.726 169.433 C 276.281 169.429,276.268 169.410,275.602 169.240 C 274.557 168.974,273.660 168.974,274.490 169.240 M120.095 170.306 C 121.365 171.257,122.792 172.218,122.792 172.124 C 122.792 171.951,120.422 170.229,120.185 170.229 C 120.079 170.229,120.038 170.263,120.095 170.306 M125.263 173.777 C 125.263 173.845,125.596 174.138,126.004 174.429 C 126.411 174.719,126.745 174.901,126.745 174.833 C 126.745 174.765,126.411 174.472,126.004 174.182 C 125.596 173.891,125.263 173.709,125.263 173.777 M281.965 174.552 C 281.967 175.096,282.018 175.289,282.077 174.982 C 282.136 174.674,282.134 174.230,282.072 173.993 C 282.010 173.757,281.962 174.009,281.965 174.552 M121.309 176.776 C 122.048 177.523,122.707 178.135,122.775 178.135 C 122.843 178.135,122.295 177.523,121.557 176.776 C 120.818 176.028,120.159 175.417,120.091 175.417 C 120.023 175.417,120.571 176.028,121.309 176.776 M264.299 175.598 C 264.876 175.650,265.821 175.650,266.399 175.598 C 266.977 175.546,266.504 175.503,265.349 175.503 C 264.194 175.503,263.721 175.546,264.299 175.598 M258.496 175.841 C 258.872 175.898,259.428 175.897,259.732 175.838 C 260.036 175.779,259.728 175.733,259.049 175.735 C 258.369 175.737,258.121 175.784,258.496 175.841 M255.034 176.328 C 255.272 176.391,255.661 176.391,255.899 176.328 C 256.137 176.266,255.942 176.215,255.466 176.215 C 254.991 176.215,254.796 176.266,255.034 176.328 M129.710 176.713 C 130.171 177.157,131.933 178.219,131.933 178.052 C 131.933 177.985,131.350 177.576,130.636 177.143 C 129.923 176.710,129.506 176.516,129.710 176.713 M251.701 176.580 C 252.009 176.639,252.454 176.637,252.690 176.575 C 252.926 176.513,252.674 176.465,252.131 176.467 C 251.587 176.470,251.394 176.521,251.701 176.580 M272.884 177.053 C 273.292 177.450,273.669 177.747,273.723 177.713 C 273.890 177.609,273.196 176.885,272.658 176.603 C 272.308 176.419,272.381 176.564,272.884 177.053 M281.543 177.775 C 281.449 178.406,281.422 178.972,281.484 179.033 C 281.545 179.095,281.673 178.630,281.768 178.000 C 281.862 177.370,281.889 176.803,281.827 176.742 C 281.765 176.680,281.638 177.145,281.543 177.775 M273.826 179.988 C 273.827 180.803,273.873 181.107,273.928 180.663 C 273.983 180.219,273.982 179.552,273.926 179.180 C 273.869 178.809,273.824 179.172,273.826 179.988 M134.404 179.453 C 134.404 179.621,136.179 180.642,136.285 180.536 C 136.335 180.486,135.931 180.197,135.389 179.892 C 134.847 179.588,134.404 179.390,134.404 179.453 M127.239 182.705 C 127.977 183.453,128.637 184.064,128.705 184.064 C 128.772 184.064,128.224 183.453,127.486 182.705 C 126.748 181.958,126.089 181.347,126.021 181.347 C 125.953 181.347,126.501 181.958,127.239 182.705 M129.957 185.130 C 129.957 185.172,130.318 185.534,130.760 185.933 L 131.563 186.658 130.837 185.855 C 130.161 185.107,129.957 184.939,129.957 185.130 M150.957 187.647 C 151.297 187.841,151.686 188.000,151.822 188.000 C 151.958 188.000,151.791 187.841,151.452 187.647 C 151.112 187.452,150.723 187.294,150.587 187.294 C 150.451 187.294,150.618 187.452,150.957 187.647 M264.469 188.820 L 263.743 189.623 264.546 188.898 C 265.294 188.221,265.463 188.017,265.272 188.017 C 265.229 188.017,264.868 188.379,264.469 188.820 M154.663 189.129 C 155.003 189.323,155.448 189.482,155.652 189.481 C 155.855 189.481,155.648 189.318,155.191 189.119 C 154.139 188.663,153.856 188.668,154.663 189.129 M241.631 191.106 C 240.824 191.567,241.106 191.572,242.158 191.115 C 242.615 190.917,242.823 190.754,242.619 190.753 C 242.415 190.753,241.970 190.911,241.631 191.106 M259.666 192.742 C 258.805 193.497,258.805 193.498,259.597 192.971 C 260.035 192.680,260.458 192.335,260.538 192.206 C 260.777 191.820,260.579 191.942,259.666 192.742 M138.851 192.307 C 138.851 192.375,139.185 192.668,139.592 192.959 C 140.000 193.249,140.334 193.431,140.334 193.363 C 140.334 193.295,140.000 193.002,139.592 192.712 C 139.185 192.421,138.851 192.239,138.851 192.307 M256.825 194.833 L 256.084 195.470 256.887 194.939 C 257.329 194.646,257.690 194.359,257.690 194.301 C 257.690 194.116,257.585 194.180,256.825 194.833 M274.243 195.676 C 273.813 196.220,273.516 196.665,273.584 196.665 C 273.652 196.665,274.060 196.220,274.490 195.676 C 274.921 195.133,275.218 194.688,275.150 194.688 C 275.082 194.688,274.674 195.133,274.243 195.676 M177.455 195.600 C 177.693 195.662,178.082 195.662,178.320 195.600 C 178.558 195.537,178.363 195.487,177.888 195.487 C 177.412 195.487,177.217 195.537,177.455 195.600 M224.398 195.600 C 224.636 195.662,225.025 195.662,225.263 195.600 C 225.500 195.537,225.306 195.487,224.830 195.487 C 224.355 195.487,224.160 195.537,224.398 195.600 M179.741 195.923 C 180.012 196.040,180.457 196.132,180.729 196.128 C 181.126 196.123,181.102 196.082,180.605 195.923 C 179.761 195.653,179.111 195.653,179.741 195.923 M222.236 195.923 C 221.924 196.057,221.879 196.136,222.112 196.136 C 222.316 196.136,222.705 196.040,222.977 195.923 C 223.289 195.790,223.334 195.711,223.101 195.711 C 222.897 195.711,222.508 195.807,222.236 195.923 M254.046 196.551 C 253.332 197.019,252.749 197.453,252.749 197.517 C 252.749 197.673,255.213 196.133,255.371 195.878 C 255.558 195.576,255.455 195.628,254.046 196.551 M182.149 196.341 C 182.387 196.403,182.776 196.403,183.014 196.341 C 183.252 196.279,183.057 196.228,182.582 196.228 C 182.106 196.228,181.912 196.279,182.149 196.341 M184.435 196.658 C 184.907 196.867,186.482 197.008,186.267 196.823 C 186.211 196.773,185.664 196.667,185.053 196.586 C 184.310 196.488,184.105 196.512,184.435 196.658 M217.295 196.665 C 216.629 196.834,216.616 196.854,217.171 196.858 C 217.511 196.860,218.067 196.773,218.406 196.665 C 219.237 196.399,218.340 196.399,217.295 196.665 M188.820 197.082 C 189.058 197.144,189.447 197.144,189.685 197.082 C 189.923 197.020,189.728 196.969,189.253 196.969 C 188.777 196.969,188.582 197.020,188.820 197.082 M213.403 197.086 C 213.709 197.145,214.209 197.145,214.515 197.086 C 214.821 197.027,214.571 196.979,213.959 196.979 C 213.348 196.979,213.098 197.027,213.403 197.086 M190.797 197.329 C 191.035 197.391,191.424 197.391,191.662 197.329 C 191.899 197.267,191.705 197.216,191.229 197.216 C 190.754 197.216,190.559 197.267,190.797 197.329 M211.430 197.333 C 211.737 197.393,212.182 197.390,212.418 197.328 C 212.654 197.267,212.403 197.218,211.859 197.221 C 211.316 197.224,211.122 197.274,211.430 197.333 M193.148 197.585 C 193.592 197.640,194.259 197.639,194.631 197.582 C 195.002 197.526,194.639 197.481,193.823 197.482 C 193.008 197.484,192.704 197.530,193.148 197.585 M208.714 197.585 C 209.158 197.640,209.825 197.639,210.196 197.582 C 210.567 197.526,210.204 197.481,209.389 197.482 C 208.573 197.484,208.269 197.530,208.714 197.585 M268.478 197.818 C 268.206 198.091,268.293 199.263,268.610 199.580 C 268.936 199.906,270.194 199.985,270.376 199.691 C 270.439 199.589,270.084 199.506,269.588 199.506 C 268.709 199.506,268.684 199.481,268.684 198.579 C 268.684 198.070,268.675 197.653,268.664 197.653 C 268.652 197.653,268.569 197.727,268.478 197.818 M241.384 203.459 C 241.044 203.653,240.877 203.812,241.013 203.812 C 241.149 203.812,241.538 203.653,241.878 203.459 C 242.217 203.265,242.384 203.106,242.248 203.106 C 242.112 203.106,241.723 203.265,241.384 203.459 M173.708 209.354 C 173.765 209.403,174.145 209.517,174.552 209.608 C 175.093 209.729,175.193 209.706,174.923 209.523 C 174.589 209.298,173.460 209.140,173.708 209.354 M177.270 210.253 C 177.542 210.370,177.931 210.466,178.135 210.466 C 178.368 210.466,178.323 210.387,178.011 210.253 C 177.739 210.136,177.350 210.041,177.146 210.041 C 176.913 210.041,176.958 210.119,177.270 210.253 M180.605 210.994 C 181.450 211.265,182.100 211.265,181.470 210.994 C 181.198 210.878,180.754 210.785,180.482 210.789 C 180.085 210.795,180.109 210.835,180.605 210.994 M217.542 210.994 C 217.230 211.128,217.185 211.207,217.418 211.207 C 217.622 211.207,218.011 211.111,218.283 210.994 C 218.594 210.861,218.640 210.782,218.406 210.782 C 218.203 210.782,217.813 210.878,217.542 210.994 M215.750 211.412 C 215.988 211.474,216.377 211.474,216.615 211.412 C 216.853 211.350,216.658 211.299,216.183 211.299 C 215.707 211.299,215.513 211.350,215.750 211.412 M184.929 211.736 C 185.201 211.852,185.645 211.945,185.917 211.941 C 186.314 211.935,186.290 211.895,185.794 211.736 C 184.949 211.465,184.299 211.465,184.929 211.736 M213.095 211.747 C 212.750 211.903,212.900 211.925,213.589 211.821 C 214.132 211.738,214.623 211.629,214.680 211.579 C 214.892 211.392,213.569 211.532,213.095 211.747 M187.956 212.157 C 188.261 212.216,188.762 212.216,189.067 212.157 C 189.373 212.098,189.123 212.050,188.511 212.050 C 187.900 212.050,187.650 212.098,187.956 212.157 M210.071 212.160 C 210.447 212.217,211.003 212.215,211.307 212.157 C 211.611 212.098,211.303 212.052,210.624 212.053 C 209.944 212.055,209.696 212.103,210.071 212.160 M190.982 212.478 C 192.113 212.691,194.361 212.799,194.173 212.632 C 194.117 212.582,193.125 212.479,191.970 212.405 C 190.444 212.306,190.174 212.327,190.982 212.478 M208.091 212.400 C 208.329 212.462,208.718 212.462,208.956 212.400 C 209.194 212.338,208.999 212.287,208.524 212.287 C 208.048 212.287,207.854 212.338,208.091 212.400 M205.871 212.654 C 206.247 212.711,206.803 212.709,207.107 212.651 C 207.410 212.592,207.103 212.546,206.424 212.548 C 205.744 212.549,205.496 212.597,205.871 212.654 " stroke="none" fill="#a5a5a5" fill-rule="evenodd"></path><path id="path4" d="M193.947 37.068 C 190.561 37.383,188.406 37.822,190.982 37.672 C 192.001 37.613,193.780 37.458,194.935 37.328 C 197.697 37.017,205.192 37.017,207.536 37.328 C 208.555 37.463,210.222 37.621,211.242 37.679 L 213.095 37.785 211.242 37.424 C 208.984 36.986,197.401 36.747,193.947 37.068 M186.658 38.102 C 186.115 38.233,184.325 38.668,182.681 39.069 C 168.294 42.579,157.602 51.121,152.573 63.125 C 152.346 63.669,152.065 64.336,151.950 64.608 C 151.731 65.125,151.227 66.719,150.623 68.808 C 148.909 74.732,150.457 77.581,155.387 77.578 C 156.008 77.578,157.962 77.745,159.728 77.950 C 161.495 78.155,164.441 78.490,166.275 78.694 C 168.110 78.898,170.506 79.176,171.600 79.310 C 174.240 79.635,174.707 79.630,174.110 79.283 C 173.867 79.142,172.255 78.935,170.528 78.825 C 168.801 78.714,167.217 78.553,167.009 78.466 C 166.802 78.380,165.412 78.208,163.921 78.085 C 160.712 77.820,156.987 77.417,154.416 77.057 C 150.077 76.448,149.294 74.431,151.069 68.437 C 151.291 67.690,151.571 66.745,151.692 66.337 C 152.425 63.869,154.284 59.869,155.692 57.734 C 156.213 56.943,156.640 56.202,156.640 56.087 C 156.640 55.972,156.727 55.841,156.834 55.796 C 156.940 55.750,157.542 55.046,158.172 54.231 C 162.287 48.905,168.544 44.402,175.664 41.641 C 176.275 41.404,177.141 41.055,177.587 40.864 C 178.033 40.674,178.595 40.519,178.835 40.519 C 179.075 40.519,179.377 40.423,179.506 40.306 C 179.849 39.994,184.019 38.912,186.288 38.545 C 187.035 38.424,187.980 38.217,188.388 38.085 L 189.129 37.844 188.388 37.854 C 187.980 37.859,187.202 37.971,186.658 38.102 M213.699 38.074 C 214.032 38.207,214.921 38.415,215.676 38.536 C 217.102 38.765,218.914 39.210,219.765 39.541 C 220.037 39.647,220.871 39.914,221.618 40.135 C 224.256 40.914,228.510 42.783,230.389 43.990 C 230.797 44.252,231.297 44.542,231.501 44.635 C 235.646 46.526,241.289 53.279,243.853 59.419 C 244.493 60.951,245.457 64.722,245.811 67.078 C 245.954 68.030,246.137 69.253,246.219 69.796 C 246.300 70.340,246.444 83.959,246.540 100.062 C 246.698 126.746,246.751 129.438,247.133 130.451 C 247.364 131.062,247.555 131.809,247.557 132.110 C 247.559 132.411,247.742 133.078,247.965 133.593 C 248.496 134.818,248.733 135.384,249.031 136.133 C 249.165 136.473,249.611 137.307,250.021 137.986 C 250.430 138.666,250.843 139.389,250.938 139.592 C 251.032 139.796,252.118 141.357,253.350 143.062 C 256.259 147.086,256.455 147.475,256.455 149.227 C 256.455 150.963,256.291 151.163,252.007 154.642 C 251.260 155.250,250.537 155.870,250.401 156.022 C 250.266 156.174,248.989 157.292,247.565 158.507 C 246.141 159.722,244.601 161.050,244.143 161.458 C 242.650 162.787,242.497 162.921,240.633 164.546 C 239.619 165.429,238.734 166.210,238.666 166.282 C 236.692 168.362,233.546 168.717,231.526 167.088 C 227.857 164.128,222.622 158.051,219.919 153.613 C 219.205 152.442,218.710 152.445,217.509 153.629 C 216.983 154.147,215.831 155.218,214.947 156.010 C 214.064 156.801,212.952 157.798,212.477 158.225 C 211.039 159.517,208.036 161.663,205.682 163.082 C 203.588 164.344,202.727 164.795,200.803 165.640 C 198.598 166.607,198.165 166.770,197.797 166.770 C 197.578 166.770,197.206 166.868,196.970 166.988 C 196.311 167.323,194.477 167.775,192.835 168.007 C 191.133 168.248,189.598 168.692,190.350 168.725 C 191.003 168.754,193.570 168.271,194.982 167.853 C 195.619 167.665,196.280 167.511,196.452 167.511 C 196.962 167.511,200.842 165.994,202.965 164.965 C 207.013 163.001,212.124 159.223,216.594 154.889 C 218.873 152.680,218.949 152.672,220.123 154.484 C 224.067 160.572,230.713 167.640,233.100 168.284 C 235.294 168.876,236.738 168.369,239.310 166.107 C 240.111 165.402,240.999 164.624,241.284 164.377 C 242.560 163.273,245.221 160.930,245.580 160.593 C 245.798 160.389,246.639 159.668,247.448 158.990 C 248.257 158.312,249.030 157.635,249.166 157.486 C 249.302 157.336,250.827 156.023,252.555 154.568 C 254.282 153.113,255.922 151.635,256.199 151.283 C 257.226 149.977,256.715 146.952,255.121 144.904 C 250.407 138.848,248.834 135.896,247.491 130.574 C 247.010 128.669,246.985 127.547,246.807 99.197 C 246.706 83.027,246.550 69.407,246.462 68.931 C 246.374 68.456,246.131 67.122,245.923 65.967 C 245.715 64.812,245.446 63.533,245.325 63.125 C 245.204 62.718,244.918 61.717,244.688 60.902 C 244.458 60.086,244.133 59.141,243.966 58.802 C 243.799 58.462,243.305 57.461,242.867 56.578 C 238.933 48.638,231.011 42.572,220.506 39.457 C 215.956 38.108,211.534 37.209,213.699 38.074 M194.688 61.548 C 193.805 61.667,192.889 61.875,192.653 62.012 C 192.417 62.149,191.990 62.261,191.703 62.261 C 191.416 62.261,190.887 62.411,190.526 62.594 C 190.165 62.777,189.426 63.132,188.882 63.382 C 187.401 64.064,184.443 66.319,183.651 67.371 C 183.267 67.880,182.764 68.489,182.535 68.723 C 181.617 69.659,179.626 74.496,179.609 75.832 C 179.596 76.810,178.380 78.378,177.152 78.999 C 176.548 79.305,176.235 79.555,176.456 79.555 C 177.566 79.555,179.864 77.167,179.864 76.014 C 179.864 71.034,186.381 63.753,191.970 62.489 C 192.446 62.382,193.280 62.178,193.823 62.036 C 195.429 61.617,201.456 61.702,203.196 62.167 C 208.928 63.701,212.170 67.082,213.591 73.008 C 213.894 74.272,214.042 76.378,214.142 80.838 L 214.280 86.939 213.687 87.064 C 212.143 87.389,209.747 87.708,208.874 87.705 C 208.342 87.704,206.628 87.863,205.065 88.060 C 203.502 88.257,200.500 88.596,198.394 88.813 C 196.288 89.031,194.009 89.316,193.329 89.446 C 192.650 89.577,191.816 89.732,191.476 89.791 C 189.476 90.140,195.757 89.527,199.876 88.971 C 203.702 88.454,206.521 88.164,209.682 87.960 C 211.475 87.845,213.253 87.599,213.635 87.415 L 214.330 87.080 214.291 80.538 C 214.260 75.288,214.175 73.777,213.862 72.884 C 213.648 72.273,213.471 71.529,213.469 71.231 C 213.467 70.934,213.366 70.629,213.245 70.554 C 213.125 70.480,212.952 70.125,212.862 69.767 C 212.302 67.533,207.841 63.002,206.203 63.002 C 206.001 63.002,205.775 62.904,205.701 62.784 C 205.033 61.704,198.772 61.002,194.688 61.548 M189.216 90.051 C 189.151 90.116,188.493 90.270,187.754 90.393 C 186.491 90.602,186.470 90.617,187.400 90.640 C 187.943 90.653,188.944 90.509,189.623 90.320 C 190.680 90.026,190.748 89.973,190.097 89.954 C 189.678 89.942,189.281 89.986,189.216 90.051 M184.558 90.907 C 184.219 91.014,183.051 91.295,181.964 91.532 C 180.877 91.770,179.710 92.054,179.370 92.165 C 179.030 92.275,177.918 92.604,176.899 92.894 C 169.161 95.098,162.262 99.139,156.998 104.550 C 154.717 106.895,152.934 108.968,152.934 109.276 C 152.934 109.344,152.530 109.995,152.037 110.723 C 151.043 112.186,148.734 116.899,148.734 117.463 C 148.734 117.660,148.637 117.881,148.519 117.954 C 148.400 118.027,148.234 118.395,148.150 118.772 C 148.066 119.148,147.769 120.235,147.492 121.186 C 147.214 122.137,146.885 123.582,146.761 124.398 C 146.637 125.213,146.406 126.653,146.249 127.598 C 145.325 133.131,146.562 144.142,148.640 148.895 C 148.828 149.323,148.981 149.754,148.981 149.852 C 148.981 151.243,152.873 157.086,155.646 159.856 C 159.432 163.640,163.081 165.782,169.092 167.749 C 170.268 168.133,173.178 168.753,173.687 168.727 C 174.401 168.691,172.320 168.042,171.430 168.024 C 170.936 168.013,170.214 167.839,169.824 167.636 C 169.435 167.433,168.865 167.266,168.557 167.265 C 168.250 167.264,167.805 167.158,167.569 167.029 C 167.333 166.899,166.695 166.611,166.152 166.388 C 164.336 165.644,160.948 163.917,160.593 163.555 C 160.525 163.486,159.969 163.106,159.358 162.710 C 156.987 161.176,152.848 156.656,151.424 154.046 C 151.202 153.638,150.784 152.915,150.496 152.440 C 149.954 151.544,149.926 151.482,149.305 149.846 C 149.099 149.302,148.832 148.667,148.712 148.433 C 148.591 148.200,148.385 147.589,148.254 147.074 C 148.122 146.560,147.834 145.473,147.614 144.657 C 146.394 140.151,145.884 131.288,146.604 127.116 C 146.815 125.893,147.039 124.558,147.102 124.151 C 147.316 122.754,147.766 120.939,148.003 120.510 C 148.133 120.274,148.240 119.885,148.241 119.645 C 148.242 119.405,148.409 118.891,148.612 118.502 C 148.815 118.112,148.981 117.649,148.981 117.472 C 148.981 117.294,149.138 116.835,149.331 116.450 C 149.523 116.065,150.041 115.028,150.481 114.145 C 151.646 111.809,151.689 111.734,153.245 109.424 C 155.764 105.681,160.653 101.155,165.421 98.151 C 166.442 97.509,171.945 94.873,172.266 94.873 C 172.452 94.873,172.821 94.710,173.084 94.511 C 173.348 94.311,173.792 94.144,174.070 94.140 C 174.349 94.136,174.683 94.027,174.812 93.899 C 174.941 93.771,175.491 93.554,176.035 93.417 C 177.933 92.937,179.249 92.582,179.617 92.450 C 180.338 92.192,182.721 91.635,183.941 91.439 C 184.620 91.329,185.454 91.120,185.794 90.972 L 186.411 90.705 185.794 90.708 C 185.454 90.711,184.898 90.800,184.558 90.907 M208.524 105.762 C 202.986 106.270,201.429 106.461,200.787 106.710 C 200.404 106.858,199.778 106.980,199.395 106.980 C 199.011 106.980,198.324 107.152,197.867 107.362 C 196.917 107.799,196.861 107.805,200.865 107.022 C 205.650 106.086,213.451 105.552,213.893 106.129 C 214.849 107.377,213.975 123.817,212.712 128.351 C 210.496 136.307,205.068 142.824,198.890 144.948 C 197.784 145.329,197.490 145.504,197.947 145.511 C 198.313 145.517,198.681 145.411,198.765 145.275 C 198.849 145.139,199.084 145.028,199.287 145.028 C 199.638 145.028,201.153 144.351,202.224 143.715 C 206.239 141.332,209.647 137.115,211.844 131.810 C 212.070 131.266,212.360 130.628,212.489 130.392 C 212.618 130.157,212.723 129.767,212.723 129.528 C 212.722 129.288,212.880 128.592,213.073 127.980 C 214.207 124.394,215.108 106.954,214.215 105.878 C 213.865 105.456,212.229 105.423,208.524 105.762 M195.553 107.968 C 195.469 108.104,195.229 108.215,195.020 108.215 C 194.635 108.215,193.416 108.691,192.136 109.342 C 191.751 109.537,191.321 109.697,191.181 109.697 C 190.898 109.697,187.739 111.749,186.812 112.535 C 184.490 114.502,182.499 117.152,181.518 119.580 C 181.326 120.056,181.025 120.778,180.848 121.186 C 180.672 121.594,180.448 122.427,180.352 123.039 C 180.255 123.650,180.036 124.985,179.866 126.004 C 179.209 129.929,180.168 136.098,181.863 138.851 C 181.988 139.055,182.164 139.389,182.254 139.592 C 184.118 143.831,191.368 147.138,196.047 145.885 L 197.282 145.554 195.429 145.684 C 187.228 146.260,181.944 141.800,180.333 132.941 C 178.438 122.529,184.082 112.007,193.106 109.131 C 195.610 108.333,196.959 107.758,196.370 107.740 C 196.005 107.730,195.637 107.832,195.553 107.968 M174.249 168.893 C 174.660 169.283,182.283 169.470,185.794 169.178 L 189.870 168.837 182.032 168.839 C 177.720 168.839,174.218 168.864,174.249 168.893 " stroke="none" fill="#848484" fill-rule="evenodd"></path></g></svg>